<svg width="1024" height="1024" version="1.1" xmlns="http://www.w3.org/2000/svg" desc="Created with imagetracer.js version 1.2.6" ><path fill="rgb(6,50,110)" stroke="rgb(6,50,110)" stroke-width="1" opacity="0.09803921568627451" d="M 493.5 109 L 498 109.5 L 493.5 110 L 493.5 109 Z " /><path fill="rgb(6,50,110)" stroke="rgb(6,50,110)" stroke-width="1" opacity="0.09803921568627451" d="M 523.5 109 L 530 109.5 L 523.5 110 L 523.5 109 Z " /><path fill="rgb(6,50,110)" stroke="rgb(6,50,110)" stroke-width="1" opacity="0.09803921568627451" d="M 482.5 110 L 485 110.5 L 482.5 111 L 482.5 110 Z " /><path fill="rgb(6,50,110)" stroke="rgb(6,50,110)" stroke-width="1" opacity="0.09803921568627451" d="M 538.5 110 L 541 110.5 L 538.5 111 L 538.5 110 Z " /><path fill="rgb(6,50,110)" stroke="rgb(6,50,110)" stroke-width="1" opacity="0.09803921568627451" d="M 474.5 111 L 477 111.5 L 474.5 112 L 474.5 111 Z " /><path fill="rgb(6,50,110)" stroke="rgb(6,50,110)" stroke-width="1" opacity="0.09803921568627451" d="M 589.5 120 L 592 120.5 L 589.5 121 L 589.5 120 Z " /><path fill="rgb(6,50,110)" stroke="rgb(6,50,110)" stroke-width="1" opacity="0.09803921568627451" d="M 642.5 143 L 643.5 145 L 642.5 143 Z " /><path fill="rgb(6,50,110)" stroke="rgb(6,50,110)" stroke-width="1" opacity="0.09803921568627451" d="M 378.5 145 L 377.5 147 L 378.5 145 Z " /><path fill="rgb(6,50,110)" stroke="rgb(6,50,110)" stroke-width="1" opacity="0.09803921568627451" d="M 646.5 146 L 647.5 148 L 646.5 146 Z " /><path fill="rgb(6,50,110)" stroke="rgb(6,50,110)" stroke-width="1" opacity="0.09803921568627451" d="M 373.5 149 L 368.5 155 L 373.5 149 Z " /><path fill="rgb(6,50,110)" stroke="rgb(6,50,110)" stroke-width="1" opacity="0.09803921568627451" d="M 499.5 149 L 504 149.5 L 499.5 150 L 499.5 149 Z " /><path fill="rgb(6,50,110)" stroke="rgb(6,50,110)" stroke-width="1" opacity="0.09803921568627451" d="M 520.5 149 Q 527.2 147.2 529 150.5 L 527.5 150 L 520.5 150 L 520.5 149 Z " /><path fill="rgb(6,50,110)" stroke="rgb(6,50,110)" stroke-width="1" opacity="0.09803921568627451" d="M 485.5 150 L 490 150.5 L 485.5 151 L 485.5 150 Z " /><path fill="rgb(6,50,110)" stroke="rgb(6,50,110)" stroke-width="1" opacity="0.09803921568627451" d="M 535.5 150 L 540 150.5 L 535.5 151 L 535.5 150 Z " /><path fill="rgb(6,50,110)" stroke="rgb(6,50,110)" stroke-width="1" opacity="0.09803921568627451" d="M 545.5 151 L 549 152.5 L 547.5 152 Q 544.5 152.5 545.5 151 Z " /><path fill="rgb(6,50,110)" stroke="rgb(6,50,110)" stroke-width="1" opacity="0.09803921568627451" d="M 471.5 152 L 474 152.5 L 471.5 153 L 471.5 152 Z " /><path fill="rgb(6,50,110)" stroke="rgb(6,50,110)" stroke-width="1" opacity="0.09803921568627451" d="M 552.5 152 L 555 152.5 L 552.5 153 L 552.5 152 Z " /><path fill="rgb(6,50,110)" stroke="rgb(6,50,110)" stroke-width="1" opacity="0.09803921568627451" d="M 653.5 153 L 655.5 156 L 653.5 153 Z " /><path fill="rgb(6,50,110)" stroke="rgb(6,50,110)" stroke-width="1" opacity="0.09803921568627451" d="M 359.5 172 L 360 174.5 L 359 174.5 L 359.5 172 Z " /><path fill="rgb(6,50,110)" stroke="rgb(6,50,110)" stroke-width="1" opacity="0.09803921568627451" d="M 405.5 174 L 404.5 176 L 405.5 174 Z " /><path fill="rgb(6,50,110)" stroke="rgb(6,50,110)" stroke-width="1" opacity="0.09803921568627451" d="M 618.5 174 L 623.5 180 L 618.5 174 Z " /><path fill="rgb(6,50,110)" stroke="rgb(6,50,110)" stroke-width="1" opacity="0.09803921568627451" d="M 663.5 176 L 664 188.5 L 663 188.5 L 663.5 176 Z " /><path fill="rgb(6,50,110)" stroke="rgb(6,50,110)" stroke-width="1" opacity="0.09803921568627451" d="M 401.5 177 L 399.5 180 L 401.5 177 Z " /><path fill="rgb(6,50,110)" stroke="rgb(6,50,110)" stroke-width="1" opacity="0.09803921568627451" d="M 397.5 189 L 398 194.5 L 397 194.5 L 397.5 189 Z " /><path fill="rgb(6,50,110)" stroke="rgb(6,50,110)" stroke-width="1" opacity="0.09803921568627451" d="M 624.5 190 L 625 194.5 L 624 194.5 L 624.5 190 Z " /><path fill="rgb(6,50,110)" stroke="rgb(6,50,110)" stroke-width="1" opacity="0.09803921568627451" d="M 359.5 198 L 360 206.5 L 359 206.5 L 359.5 198 Z " /><path fill="rgb(6,50,110)" stroke="rgb(6,50,110)" stroke-width="1" opacity="0.09803921568627451" d="M 662.5 202 L 663 209.5 L 662 209.5 L 662.5 202 Z " /><path fill="rgb(6,50,110)" stroke="rgb(6,50,110)" stroke-width="1" opacity="0.09803921568627451" d="M 623.5 203 L 624 208.5 L 623 208.5 L 623.5 203 Z " /><path fill="rgb(6,50,110)" stroke="rgb(6,50,110)" stroke-width="1" opacity="0.09803921568627451" d="M 317.5 206 L 321 206.5 L 317.5 207 L 317.5 206 Z " /><path fill="rgb(6,50,110)" stroke="rgb(6,50,110)" stroke-width="1" opacity="0.09803921568627451" d="M 700.5 206 L 707 206.5 L 700.5 207 L 700.5 206 Z " /><path fill="rgb(6,50,110)" stroke="rgb(6,50,110)" stroke-width="1" opacity="0.09803921568627451" d="M 398.5 207 L 399 214.5 L 398 214.5 L 398.5 207 Z " /><path fill="rgb(6,50,110)" stroke="rgb(6,50,110)" stroke-width="1" opacity="0.09803921568627451" d="M 686.5 211 L 685.5 213 L 686.5 211 Z " /><path fill="rgb(6,50,110)" stroke="rgb(6,50,110)" stroke-width="1" opacity="0.09803921568627451" d="M 720.5 211 L 721.5 213 L 720.5 211 Z " /><path fill="rgb(6,50,110)" stroke="rgb(6,50,110)" stroke-width="1" opacity="0.09803921568627451" d="M 338.5 213 L 341.5 217 L 338.5 213 Z " /><path fill="rgb(6,50,110)" stroke="rgb(6,50,110)" stroke-width="1" opacity="0.09803921568627451" d="M 453.5 214 L 458 214.5 L 453.5 215 L 453.5 214 Z " /><path fill="rgb(6,50,110)" stroke="rgb(6,50,110)" stroke-width="1" opacity="0.09803921568627451" d="M 564.5 214 L 571 214.5 L 564.5 215 L 564.5 214 Z " /><path fill="rgb(6,50,110)" stroke="rgb(6,50,110)" stroke-width="1" opacity="0.09803921568627451" d="M 450.5 215 L 452 215.5 L 449.5 217 L 450.5 215 Z " /><path fill="rgb(6,50,110)" stroke="rgb(6,50,110)" stroke-width="1" opacity="0.09803921568627451" d="M 462.5 216 L 463.5 218 L 462.5 216 Z " /><path fill="rgb(6,50,110)" stroke="rgb(6,50,110)" stroke-width="1" opacity="0.09803921568627451" d="M 574.5 216 L 575.5 218 L 574.5 216 Z " /><path fill="rgb(6,50,110)" stroke="rgb(6,50,110)" stroke-width="1" opacity="0.09803921568627451" d="M 681.5 216 L 680.5 218 L 681.5 216 Z " /><path fill="rgb(6,50,110)" stroke="rgb(6,50,110)" stroke-width="1" opacity="0.09803921568627451" d="M 559.5 217 L 560 218.5 L 558 219.5 L 559.5 217 Z " /><path fill="rgb(6,50,110)" stroke="rgb(6,50,110)" stroke-width="1" opacity="0.09803921568627451" d="M 295.5 218 L 294.5 220 L 295.5 218 Z " /><path fill="rgb(6,50,110)" stroke="rgb(6,50,110)" stroke-width="1" opacity="0.09803921568627451" d="M 360.5 218 L 361 223.5 L 360 223.5 L 359 219.5 L 360.5 218 Z " /><path fill="rgb(6,50,110)" stroke="rgb(6,50,110)" stroke-width="1" opacity="0.09803921568627451" d="M 622.5 219 L 623 224.5 L 622 224.5 L 622.5 219 Z " /><path fill="rgb(6,50,110)" stroke="rgb(6,50,110)" stroke-width="1" opacity="0.09803921568627451" d="M 661.5 219 L 662 223.5 L 661 223.5 L 661.5 219 Z " /><path fill="rgb(6,50,110)" stroke="rgb(6,50,110)" stroke-width="1" opacity="0.09803921568627451" d="M 445.5 221 L 445 222.5 L 443.5 225 L 444 223.5 L 445.5 221 Z " /><path fill="rgb(6,50,110)" stroke="rgb(6,50,110)" stroke-width="1" opacity="0.09803921568627451" d="M 577.5 221 L 578.5 223 L 577.5 221 Z " /><path fill="rgb(6,50,110)" stroke="rgb(6,50,110)" stroke-width="1" opacity="0.09803921568627451" d="M 556.5 223 L 555.5 225 L 556.5 223 Z " /><path fill="rgb(6,50,110)" stroke="rgb(6,50,110)" stroke-width="1" opacity="0.09803921568627451" d="M 579.5 224 L 580.5 226 L 579.5 224 Z " /><path fill="rgb(6,50,110)" stroke="rgb(6,50,110)" stroke-width="1" opacity="0.09803921568627451" d="M 468.5 226 L 469.5 228 L 468.5 226 Z " /><path fill="rgb(6,50,110)" stroke="rgb(6,50,110)" stroke-width="1" opacity="0.09803921568627451" d="M 554.5 226 L 553.5 228 L 554.5 226 Z " /><path fill="rgb(6,50,110)" stroke="rgb(6,50,110)" stroke-width="1" opacity="0.09803921568627451" d="M 581.5 227 L 582.5 229 L 581.5 227 Z " /><path fill="rgb(6,50,110)" stroke="rgb(6,50,110)" stroke-width="1" opacity="0.09803921568627451" d="M 440.5 229 L 430.5 240 L 425.5 244 L 429.5 239 L 440.5 229 Z " /><path fill="rgb(6,50,110)" stroke="rgb(6,50,110)" stroke-width="1" opacity="0.09803921568627451" d="M 470.5 229 L 481 238.5 L 479.5 239 L 470.5 229 Z " /><path fill="rgb(6,50,110)" stroke="rgb(6,50,110)" stroke-width="1" opacity="0.09803921568627451" d="M 551 229 L 553 229.5 L 535.5 246 L 541.5 239 L 544.5 237 L 551 229 Z " /><path fill="rgb(6,50,110)" stroke="rgb(6,50,110)" stroke-width="1" opacity="0.09803921568627451" d="M 399.5 230 L 400 235.5 L 399 235.5 L 399.5 230 Z " /><path fill="rgb(6,50,110)" stroke="rgb(6,50,110)" stroke-width="1" opacity="0.09803921568627451" d="M 361.5 232 L 362 236.5 L 360 235.5 L 361.5 232 Z " /><path fill="rgb(6,50,110)" stroke="rgb(6,50,110)" stroke-width="1" opacity="0.09803921568627451" d="M 586.5 233 L 594 239.5 L 589.5 236 L 586.5 233 Z " /><path fill="rgb(6,50,110)" stroke="rgb(6,50,110)" stroke-width="1" opacity="0.09803921568627451" d="M 734.5 238 L 735 247.5 L 734 247.5 L 734.5 238 Z " /><path fill="rgb(6,50,110)" stroke="rgb(6,50,110)" stroke-width="1" opacity="0.09803921568627451" d="M 288.5 239 L 289 245.5 L 288 245.5 L 288.5 239 Z " /><path fill="rgb(6,50,110)" stroke="rgb(6,50,110)" stroke-width="1" opacity="0.09803921568627451" d="M 621.5 239 L 622 246.5 L 621 246.5 L 621.5 239 Z " /><path fill="rgb(6,50,110)" stroke="rgb(6,50,110)" stroke-width="1" opacity="0.09803921568627451" d="M 482.5 240 L 484.5 243 L 482.5 240 Z " /><path fill="rgb(6,50,110)" stroke="rgb(6,50,110)" stroke-width="1" opacity="0.09803921568627451" d="M 596.5 241 L 601.5 247 L 596.5 241 Z " /><path fill="rgb(6,50,110)" stroke="rgb(6,50,110)" stroke-width="1" opacity="0.09803921568627451" d="M 423.5 245 L 422.5 247 L 423.5 245 Z " /><path fill="rgb(6,50,110)" stroke="rgb(6,50,110)" stroke-width="1" opacity="0.09803921568627451" d="M 533.5 249 L 534 253.5 L 533 253.5 L 533.5 249 Z " /><path fill="rgb(6,50,110)" stroke="rgb(6,50,110)" stroke-width="1" opacity="0.09803921568627451" d="M 734.5 249 L 735 266.5 L 734 266.5 L 734.5 249 Z " /><path fill="rgb(6,50,110)" stroke="rgb(6,50,110)" stroke-width="1" opacity="0.09803921568627451" d="M 400.5 250 L 401 258.5 L 400 258.5 L 400.5 250 Z " /><path fill="rgb(6,50,110)" stroke="rgb(6,50,110)" stroke-width="1" opacity="0.09803921568627451" d="M 421.5 253 L 422 254.5 L 420 255.5 L 421.5 253 Z " /><path fill="rgb(6,50,110)" stroke="rgb(6,50,110)" stroke-width="1" opacity="0.09803921568627451" d="M 490.5 254 L 491 255.5 L 489 256.5 L 490.5 254 Z " /><path fill="rgb(6,50,110)" stroke="rgb(6,50,110)" stroke-width="1" opacity="0.09803921568627451" d="M 534.5 255 L 542.5 264 L 545.5 266 L 552 273.5 L 551 273.5 L 549.5 271 Q 548.3 273.3 547 270.5 Q 548.1 267.2 545.5 268 L 542 266 L 542 264 Q 539.3 265.1 540 262.5 L 534 258 L 534.5 255 Z " /><path fill="rgb(6,50,110)" stroke="rgb(6,50,110)" stroke-width="1" opacity="0.09803921568627451" d="M 600.5 258 L 596.5 263 L 600.5 258 Z " /><path fill="rgb(6,50,110)" stroke="rgb(6,50,110)" stroke-width="1" opacity="0.09803921568627451" d="M 487.5 259 L 486 261.5 L 485.5 263 L 485 261.5 L 487.5 259 Z " /><path fill="rgb(6,50,110)" stroke="rgb(6,50,110)" stroke-width="1" opacity="0.09803921568627451" d="M 426.5 260 L 433.5 268 Q 431.3 268.8 432 266.5 L 425 261.5 L 426.5 260 Z " /><path fill="rgb(6,50,110)" stroke="rgb(6,50,110)" stroke-width="1" opacity="0.09803921568627451" d="M 620.5 261 L 621 271.5 L 620 271.5 L 620.5 261 Z " /><path fill="rgb(6,50,110)" stroke="rgb(6,50,110)" stroke-width="1" opacity="0.09803921568627451" d="M 482.5 263 L 474.5 272 L 482.5 263 Z " /><path fill="rgb(6,50,110)" stroke="rgb(6,50,110)" stroke-width="1" opacity="0.09803921568627451" d="M 594.5 263 L 584.5 274 L 594.5 263 Z " /><path fill="rgb(6,50,110)" stroke="rgb(6,50,110)" stroke-width="1" opacity="0.09803921568627451" d="M 435.5 268 L 443 277.5 L 441 276.5 L 435 269.5 L 435.5 268 Z " /><path fill="rgb(6,50,110)" stroke="rgb(6,50,110)" stroke-width="1" opacity="0.09803921568627451" d="M 289.5 270 L 290 272.5 L 289 272.5 L 289.5 270 Z " /><path fill="rgb(6,50,110)" stroke="rgb(6,50,110)" stroke-width="1" opacity="0.09803921568627451" d="M 363.5 271 L 364 287.5 L 363 287.5 L 363.5 271 Z " /><path fill="rgb(6,50,110)" stroke="rgb(6,50,110)" stroke-width="1" opacity="0.09803921568627451" d="M 471.5 275 L 469.5 278 L 471.5 275 Z " /><path fill="rgb(6,50,110)" stroke="rgb(6,50,110)" stroke-width="1" opacity="0.09803921568627451" d="M 554.5 277 L 559 283.5 L 556 281.5 L 554.5 277 Z " /><path fill="rgb(6,50,110)" stroke="rgb(6,50,110)" stroke-width="1" opacity="0.09803921568627451" d="M 674.5 277 Q 676.8 276.3 676 278.5 L 674.5 277 Z " /><path fill="rgb(6,50,110)" stroke="rgb(6,50,110)" stroke-width="1" opacity="0.09803921568627451" d="M 581.5 278 L 580.5 280 L 581.5 278 Z " /><path fill="rgb(6,50,110)" stroke="rgb(6,50,110)" stroke-width="1" opacity="0.09803921568627451" d="M 443.5 279 L 444.5 281 L 443.5 279 Z " /><path fill="rgb(6,50,110)" stroke="rgb(6,50,110)" stroke-width="1" opacity="0.09803921568627451" d="M 401.5 280 L 402 292.5 L 401 292.5 L 401.5 280 Z " /><path fill="rgb(6,50,110)" stroke="rgb(6,50,110)" stroke-width="1" opacity="0.09803921568627451" d="M 445.5 282 L 446.5 284 L 445.5 282 Z " /><path fill="rgb(6,50,110)" stroke="rgb(6,50,110)" stroke-width="1" opacity="0.09803921568627451" d="M 578.5 283 L 577.5 285 L 578.5 283 Z " /><path fill="rgb(6,50,110)" stroke="rgb(6,50,110)" stroke-width="1" opacity="0.09803921568627451" d="M 678.5 284 L 679.5 286 L 678.5 284 Z " /><path fill="rgb(6,50,110)" stroke="rgb(6,50,110)" stroke-width="1" opacity="0.09803921568627451" d="M 295.5 285 L 296.5 287 L 295.5 285 Z " /><path fill="rgb(6,50,110)" stroke="rgb(6,50,110)" stroke-width="1" opacity="0.09803921568627451" d="M 559.5 285 L 562.5 289 L 559.5 285 Z " /><path fill="rgb(6,50,110)" stroke="rgb(6,50,110)" stroke-width="1" opacity="0.09803921568627451" d="M 727.5 285 L 721.5 292 L 727.5 285 Z " /><path fill="rgb(6,50,110)" stroke="rgb(6,50,110)" stroke-width="1" opacity="0.09803921568627451" d="M 342.5 286 L 341.5 288 L 342.5 286 Z " /><path fill="rgb(6,50,110)" stroke="rgb(6,50,110)" stroke-width="1" opacity="0.09803921568627451" d="M 464.5 286 L 462.5 289 L 458.5 291 L 459.5 289 L 464.5 286 Z " /><path fill="rgb(6,50,110)" stroke="rgb(6,50,110)" stroke-width="1" opacity="0.09803921568627451" d="M 576.5 286 L 574.5 289 L 576.5 286 Z " /><path fill="rgb(6,50,110)" stroke="rgb(6,50,110)" stroke-width="1" opacity="0.09803921568627451" d="M 450.5 288 L 454 290.5 L 452.5 290 L 450.5 288 Z " /><path fill="rgb(6,50,110)" stroke="rgb(6,50,110)" stroke-width="1" opacity="0.09803921568627451" d="M 681.5 288 L 682.5 290 L 681.5 288 Z " /><path fill="rgb(6,50,110)" stroke="rgb(6,50,110)" stroke-width="1" opacity="0.09803921568627451" d="M 300.5 290 L 302.5 293 L 300.5 290 Z " /><path fill="rgb(6,50,110)" stroke="rgb(6,50,110)" stroke-width="1" opacity="0.09803921568627451" d="M 338.5 290 L 337.5 292 L 338.5 290 Z " /><path fill="rgb(6,50,110)" stroke="rgb(6,50,110)" stroke-width="1" opacity="0.09803921568627451" d="M 619.5 292 L 620 303.5 L 619 303.5 L 619.5 292 Z " /><path fill="rgb(6,50,110)" stroke="rgb(6,50,110)" stroke-width="1" opacity="0.09803921568627451" d="M 719.5 292 L 718.5 294 L 719.5 292 Z " /><path fill="rgb(6,50,110)" stroke="rgb(6,50,110)" stroke-width="1" opacity="0.09803921568627451" d="M 304.5 293 L 305.5 295 L 304.5 293 Z " /><path fill="rgb(6,50,110)" stroke="rgb(6,50,110)" stroke-width="1" opacity="0.09803921568627451" d="M 317.5 297 L 322 297.5 L 317.5 298 L 317.5 297 Z " /><path fill="rgb(6,50,110)" stroke="rgb(6,50,110)" stroke-width="1" opacity="0.09803921568627451" d="M 700.5 297 L 706 297.5 L 700.5 298 L 700.5 297 Z " /><path fill="rgb(6,50,110)" stroke="rgb(6,50,110)" stroke-width="1" opacity="0.09803921568627451" d="M 657.5 306 L 658 326.5 L 657 326.5 L 657.5 306 Z " /><path fill="rgb(6,50,110)" stroke="rgb(6,50,110)" stroke-width="1" opacity="0.09803921568627451" d="M 402.5 320 L 403 335.5 L 402 335.5 L 402.5 320 Z " /><path fill="rgb(6,50,110)" stroke="rgb(6,50,110)" stroke-width="1" opacity="0.09803921568627451" d="M 364.5 321 L 365 342.5 L 364 342.5 L 364 330.5 L 363 329.5 L 364.5 321 Z " /><path fill="rgb(6,50,110)" stroke="rgb(6,50,110)" stroke-width="1" opacity="0.09803921568627451" d="M 324.5 332 L 327 332.5 L 324.5 333 L 324.5 332 Z " /><path fill="rgb(6,50,110)" stroke="rgb(6,50,110)" stroke-width="1" opacity="0.09803921568627451" d="M 695.5 332 L 698 332.5 L 695.5 333 L 695.5 332 Z " /><path fill="rgb(6,50,110)" stroke="rgb(6,50,110)" stroke-width="1" opacity="0.09803921568627451" d="M 618.5 335 L 619 366 L 617 365.5 L 618 356.5 L 618 344.5 L 617 343.5 L 618.5 335 Z " /><path fill="rgb(6,50,110)" stroke="rgb(6,50,110)" stroke-width="1" opacity="0.09803921568627451" d="M 335.5 336 L 341.5 343 L 335.5 336 Z " /><path fill="rgb(6,50,110)" stroke="rgb(6,50,110)" stroke-width="1" opacity="0.09803921568627451" d="M 722.5 338 L 725.5 342 L 722.5 338 Z " /><path fill="rgb(6,50,110)" stroke="rgb(6,50,110)" stroke-width="1" opacity="0.09803921568627451" d="M 298.5 339 L 297.5 341 L 298.5 339 Z " /><path fill="rgb(6,50,110)" stroke="rgb(6,50,110)" stroke-width="1" opacity="0.09803921568627451" d="M 571.5 342 L 574 343.5 L 572.5 343 L 571.5 342 Z " /><path fill="rgb(6,50,110)" stroke="rgb(6,50,110)" stroke-width="1" opacity="0.09803921568627451" d="M 295.5 343 L 294.5 345 L 295.5 343 Z " /><path fill="rgb(6,50,110)" stroke="rgb(6,50,110)" stroke-width="1" opacity="0.09803921568627451" d="M 449.5 343 L 447.5 346 L 449.5 343 Z " /><path fill="rgb(6,50,110)" stroke="rgb(6,50,110)" stroke-width="1" opacity="0.09803921568627451" d="M 462.5 343 L 463.5 345 L 462.5 343 Z " /><path fill="rgb(6,50,110)" stroke="rgb(6,50,110)" stroke-width="1" opacity="0.09803921568627451" d="M 561.5 343 L 559.5 346 L 561.5 343 Z " /><path fill="rgb(6,50,110)" stroke="rgb(6,50,110)" stroke-width="1" opacity="0.09803921568627451" d="M 679.5 343 L 678.5 345 L 679.5 343 Z " /><path fill="rgb(6,50,110)" stroke="rgb(6,50,110)" stroke-width="1" opacity="0.09803921568627451" d="M 727.5 344 L 728.5 346 L 727.5 344 Z " /><path fill="rgb(6,50,110)" stroke="rgb(6,50,110)" stroke-width="1" opacity="0.09803921568627451" d="M 464.5 346 L 465.5 348 L 464.5 346 Z " /><path fill="rgb(6,50,110)" stroke="rgb(6,50,110)" stroke-width="1" opacity="0.09803921568627451" d="M 576.5 346 L 577.5 348 L 576.5 346 Z " /><path fill="rgb(6,50,110)" stroke="rgb(6,50,110)" stroke-width="1" opacity="0.09803921568627451" d="M 291.5 349 L 292 350.5 L 290.5 353 L 290 351.5 L 291.5 349 Z " /><path fill="rgb(6,50,110)" stroke="rgb(6,50,110)" stroke-width="1" opacity="0.09803921568627451" d="M 675.5 350 L 674.5 352 L 675.5 350 Z " /><path fill="rgb(6,50,110)" stroke="rgb(6,50,110)" stroke-width="1" opacity="0.09803921568627451" d="M 444.5 351 L 443.5 353 L 444.5 351 Z " /><path fill="rgb(6,50,110)" stroke="rgb(6,50,110)" stroke-width="1" opacity="0.09803921568627451" d="M 556.5 351 L 555 353.5 L 554.5 355 L 554 353.5 L 556.5 351 Z " /><path fill="rgb(6,50,110)" stroke="rgb(6,50,110)" stroke-width="1" opacity="0.09803921568627451" d="M 579.5 351 L 582 354.5 L 580 353.5 L 579.5 351 Z " /><path fill="rgb(6,50,110)" stroke="rgb(6,50,110)" stroke-width="1" opacity="0.09803921568627451" d="M 468.5 353 L 469.5 355 L 468.5 353 Z " /><path fill="rgb(6,50,110)" stroke="rgb(6,50,110)" stroke-width="1" opacity="0.09803921568627451" d="M 442.5 354 L 441.5 356 L 442.5 354 Z " /><path fill="rgb(6,50,110)" stroke="rgb(6,50,110)" stroke-width="1" opacity="0.09803921568627451" d="M 656.5 355 L 657 360.5 L 656 360.5 L 656.5 355 Z " /><path fill="rgb(6,50,110)" stroke="rgb(6,50,110)" stroke-width="1" opacity="0.09803921568627451" d="M 348.5 356 L 349 358.5 L 348 358.5 L 348.5 356 Z " /><path fill="rgb(6,50,110)" stroke="rgb(6,50,110)" stroke-width="1" opacity="0.09803921568627451" d="M 470.5 356 L 481 365.5 L 479.5 366 L 470.5 356 Z " /><path fill="rgb(6,50,110)" stroke="rgb(6,50,110)" stroke-width="1" opacity="0.09803921568627451" d="M 551 357 L 553 357.5 L 545 364.5 L 551 357 Z " /><path fill="rgb(6,50,110)" stroke="rgb(6,50,110)" stroke-width="1" opacity="0.09803921568627451" d="M 583.5 357 L 598 370.5 L 592.5 366 L 583.5 357 Z " /><path fill="rgb(6,50,110)" stroke="rgb(6,50,110)" stroke-width="1" opacity="0.09803921568627451" d="M 439.5 358 L 433.5 365 L 439.5 358 Z " /><path fill="rgb(6,50,110)" stroke="rgb(6,50,110)" stroke-width="1" opacity="0.09803921568627451" d="M 673.5 358 L 674 360.5 L 673 360.5 L 673.5 358 Z " /><path fill="rgb(6,50,110)" stroke="rgb(6,50,110)" stroke-width="1" opacity="0.09803921568627451" d="M 288.5 364 L 289 388.5 L 288 388.5 L 287 383.5 L 288 382.5 L 288 368.5 L 288 366.5 L 288.5 364 Z " /><path fill="rgb(6,50,110)" stroke="rgb(6,50,110)" stroke-width="1" opacity="0.09803921568627451" d="M 429.5 367 L 425.5 372 L 424 371.5 L 429.5 367 Z " /><path fill="rgb(6,50,110)" stroke="rgb(6,50,110)" stroke-width="1" opacity="0.09803921568627451" d="M 482.5 367 L 485.5 370 Q 486.8 367.8 488 370.5 Q 488.8 372.8 486.5 372 L 482.5 367 Z " /><path fill="rgb(6,50,110)" stroke="rgb(6,50,110)" stroke-width="1" opacity="0.09803921568627451" d="M 541.5 367 L 537.5 372 L 536 371.5 L 541.5 367 Z " /><path fill="rgb(6,50,110)" stroke="rgb(6,50,110)" stroke-width="1" opacity="0.09803921568627451" d="M 734.5 367 L 735 386.5 L 734 386.5 L 734.5 367 Z " /><path fill="rgb(6,50,110)" stroke="rgb(6,50,110)" stroke-width="1" opacity="0.09803921568627451" d="M 599.5 371 L 601.5 374 L 599.5 371 Z " /><path fill="rgb(6,50,110)" stroke="rgb(6,50,110)" stroke-width="1" opacity="0.09803921568627451" d="M 403.5 373 L 404 440.5 L 403 440.5 L 403.5 373 Z " /><path fill="rgb(6,50,110)" stroke="rgb(6,50,110)" stroke-width="1" opacity="0.09803921568627451" d="M 423.5 373 L 422 375.5 L 421.5 377 L 421 375.5 L 423.5 373 Z " /><path fill="rgb(6,50,110)" stroke="rgb(6,50,110)" stroke-width="1" opacity="0.09803921568627451" d="M 535.5 373 L 535 374.5 L 534.5 376 L 534 374.5 L 535.5 373 Z " /><path fill="rgb(6,50,110)" stroke="rgb(6,50,110)" stroke-width="1" opacity="0.09803921568627451" d="M 489.5 374 L 491 376.5 L 490 376.5 L 489.5 374 Z " /><path fill="rgb(6,50,110)" stroke="rgb(6,50,110)" stroke-width="1" opacity="0.09803921568627451" d="M 533.5 377 L 534 382.5 L 533 382.5 L 533.5 377 Z " /><path fill="rgb(6,50,110)" stroke="rgb(6,50,110)" stroke-width="1" opacity="0.09803921568627451" d="M 603.5 377 L 604 381.5 L 603 381.5 L 603.5 377 Z " /><path fill="rgb(6,50,110)" stroke="rgb(6,50,110)" stroke-width="1" opacity="0.09803921568627451" d="M 491.5 378 L 492 380.5 L 491 380.5 L 491.5 378 Z " /><path fill="rgb(6,50,110)" stroke="rgb(6,50,110)" stroke-width="1" opacity="0.09803921568627451" d="M 422.5 384 L 440 400.5 L 442 403.5 L 440 404 L 439 400 L 435 398.5 L 435 396 Q 431.2 397.5 432 394.5 L 427 391 L 426.5 389 L 425 389.5 L 426 388.5 L 422.5 384 Z " /><path fill="rgb(6,50,110)" stroke="rgb(6,50,110)" stroke-width="1" opacity="0.09803921568627451" d="M 534.5 384 L 544 392.5 L 542.5 393 L 538 390 L 534.5 384 Z " /><path fill="rgb(6,50,110)" stroke="rgb(6,50,110)" stroke-width="1" opacity="0.09803921568627451" d="M 602.5 384 L 596.5 391 L 602.5 384 Z " /><path fill="rgb(6,50,110)" stroke="rgb(6,50,110)" stroke-width="1" opacity="0.09803921568627451" d="M 487.5 387 L 486 389.5 L 485.5 391 L 485 389.5 L 487.5 387 Z " /><path fill="rgb(6,50,110)" stroke="rgb(6,50,110)" stroke-width="1" opacity="0.09803921568627451" d="M 482.5 391 L 472.5 402 L 482.5 391 Z " /><path fill="rgb(6,50,110)" stroke="rgb(6,50,110)" stroke-width="1" opacity="0.09803921568627451" d="M 593.5 392 L 584.5 402 L 593.5 392 Z " /><path fill="rgb(6,50,110)" stroke="rgb(6,50,110)" stroke-width="1" opacity="0.09803921568627451" d="M 545.5 394 L 551.5 401 Q 549.3 396.7 547 398.5 L 547.5 397 L 545 395.5 L 545.5 394 Z " /><path fill="rgb(6,50,110)" stroke="rgb(6,50,110)" stroke-width="1" opacity="0.09803921568627451" d="M 364.5 396 L 365 398.5 L 364 398.5 L 364.5 396 Z " /><path fill="rgb(6,50,110)" stroke="rgb(6,50,110)" stroke-width="1" opacity="0.09803921568627451" d="M 656.5 396 L 657 416.5 L 656 416.5 L 656.5 396 Z " /><path fill="rgb(6,50,110)" stroke="rgb(6,50,110)" stroke-width="1" opacity="0.09803921568627451" d="M 348.5 397 L 349 399.5 L 348 399.5 L 348.5 397 Z " /><path fill="rgb(6,50,110)" stroke="rgb(6,50,110)" stroke-width="1" opacity="0.09803921568627451" d="M 471.5 403 L 470.5 405 L 471.5 403 Z " /><path fill="rgb(6,50,110)" stroke="rgb(6,50,110)" stroke-width="1" opacity="0.09803921568627451" d="M 553.5 403 L 556 406.5 L 554 405.5 L 553.5 403 Z " /><path fill="rgb(6,50,110)" stroke="rgb(6,50,110)" stroke-width="1" opacity="0.09803921568627451" d="M 583.5 403 L 582.5 405 L 583.5 403 Z " /><path fill="rgb(6,50,110)" stroke="rgb(6,50,110)" stroke-width="1" opacity="0.09803921568627451" d="M 442.5 405 L 447 411.5 L 444 409.5 L 442.5 405 Z " /><path fill="rgb(6,50,110)" stroke="rgb(6,50,110)" stroke-width="1" opacity="0.09803921568627451" d="M 468.5 408 L 467.5 410 L 468.5 408 Z " /><path fill="rgb(6,50,110)" stroke="rgb(6,50,110)" stroke-width="1" opacity="0.09803921568627451" d="M 296.5 411 L 301.5 417 L 296.5 411 Z " /><path fill="rgb(6,50,110)" stroke="rgb(6,50,110)" stroke-width="1" opacity="0.09803921568627451" d="M 342.5 411 L 341.5 413 L 342.5 411 Z " /><path fill="rgb(6,50,110)" stroke="rgb(6,50,110)" stroke-width="1" opacity="0.09803921568627451" d="M 559.5 412 L 562 415.5 L 559 413.5 L 559.5 412 Z " /><path fill="rgb(6,50,110)" stroke="rgb(6,50,110)" stroke-width="1" opacity="0.09803921568627451" d="M 680.5 412 L 685.5 418 L 680.5 412 Z " /><path fill="rgb(6,50,110)" stroke="rgb(6,50,110)" stroke-width="1" opacity="0.09803921568627451" d="M 725.5 412 L 724.5 414 L 725.5 412 Z " /><path fill="rgb(6,50,110)" stroke="rgb(6,50,110)" stroke-width="1" opacity="0.09803921568627451" d="M 465.5 413 L 462.5 417 L 461 416.5 L 465.5 413 Z " /><path fill="rgb(6,50,110)" stroke="rgb(6,50,110)" stroke-width="1" opacity="0.09803921568627451" d="M 448.5 414 L 449.5 416 L 448.5 414 Z " /><path fill="rgb(6,50,110)" stroke="rgb(6,50,110)" stroke-width="1" opacity="0.09803921568627451" d="M 576.5 414 L 574.5 417 L 576.5 414 Z " /><path fill="rgb(6,50,110)" stroke="rgb(6,50,110)" stroke-width="1" opacity="0.09803921568627451" d="M 338.5 415 L 337.5 417 L 338.5 415 Z " /><path fill="rgb(6,50,110)" stroke="rgb(6,50,110)" stroke-width="1" opacity="0.09803921568627451" d="M 451.5 416 L 456 418.5 L 453.5 419 L 451.5 416 Z " /><path fill="rgb(6,50,110)" stroke="rgb(6,50,110)" stroke-width="1" opacity="0.09803921568627451" d="M 459.5 417 L 458.5 419 L 459.5 417 Z " /><path fill="rgb(6,50,110)" stroke="rgb(6,50,110)" stroke-width="1" opacity="0.09803921568627451" d="M 308.5 420 L 307.5 422 L 308.5 420 Z " /><path fill="rgb(6,50,110)" stroke="rgb(6,50,110)" stroke-width="1" opacity="0.09803921568627451" d="M 691.5 420 Q 693.8 419.3 693 421.5 L 691.5 420 Z " /><path fill="rgb(6,50,110)" stroke="rgb(6,50,110)" stroke-width="1" opacity="0.09803921568627451" d="M 326.5 421 L 328 421.5 L 325.5 423 L 326.5 421 Z " /><path fill="rgb(6,50,110)" stroke="rgb(6,50,110)" stroke-width="1" opacity="0.09803921568627451" d="M 315.5 422 L 323 422.5 L 315.5 423 L 315.5 422 Z " /><path fill="rgb(6,50,110)" stroke="rgb(6,50,110)" stroke-width="1" opacity="0.09803921568627451" d="M 698.5 422 L 705 422.5 L 698.5 423 L 698.5 422 Z " /><path fill="rgb(6,50,110)" stroke="rgb(6,50,110)" stroke-width="1" opacity="0.09803921568627451" d="M 618.5 430 L 619 470.5 L 618 470.5 L 618 434.5 L 617 433.5 L 618.5 430 Z " /><path fill="rgb(6,50,110)" stroke="rgb(6,50,110)" stroke-width="1" opacity="0.09803921568627451" d="M 364.5 443 L 365 484.5 L 364 484.5 L 363 481.5 L 364 480.5 L 364 466.5 L 364 464.5 L 364.5 443 Z " /><path fill="rgb(6,50,110)" stroke="rgb(6,50,110)" stroke-width="1" opacity="0.09803921568627451" d="M 315.5 452 L 324 452.5 L 315.5 453 L 315.5 452 Z " /><path fill="rgb(6,50,110)" stroke="rgb(6,50,110)" stroke-width="1" opacity="0.09803921568627451" d="M 699.5 452 L 709 452.5 L 699.5 453 L 699.5 452 Z " /><path fill="rgb(6,50,110)" stroke="rgb(6,50,110)" stroke-width="1" opacity="0.09803921568627451" d="M 687.5 457 L 686.5 459 L 687.5 457 Z " /><path fill="rgb(6,50,110)" stroke="rgb(6,50,110)" stroke-width="1" opacity="0.09803921568627451" d="M 301.5 458 L 296.5 464 L 301.5 458 Z " /><path fill="rgb(6,50,110)" stroke="rgb(6,50,110)" stroke-width="1" opacity="0.09803921568627451" d="M 337.5 458 L 342.5 464 L 337.5 458 Z " /><path fill="rgb(6,50,110)" stroke="rgb(6,50,110)" stroke-width="1" opacity="0.09803921568627451" d="M 722.5 458 L 726.5 463 L 722.5 458 Z " /><path fill="rgb(6,50,110)" stroke="rgb(6,50,110)" stroke-width="1" opacity="0.09803921568627451" d="M 681.5 463 L 680 465.5 L 678.5 468 L 679 466.5 L 681.5 463 Z " /><path fill="rgb(6,50,110)" stroke="rgb(6,50,110)" stroke-width="1" opacity="0.09803921568627451" d="M 293.5 468 L 292.5 470 L 293.5 468 Z " /><path fill="rgb(6,50,110)" stroke="rgb(6,50,110)" stroke-width="1" opacity="0.09803921568627451" d="M 402.5 469 L 403 471.5 L 402 471.5 L 402.5 469 Z " /><path fill="rgb(6,50,110)" stroke="rgb(6,50,110)" stroke-width="1" opacity="0.09803921568627451" d="M 453.5 469 L 459 469.5 L 453.5 470 L 453.5 469 Z " /><path fill="rgb(6,50,110)" stroke="rgb(6,50,110)" stroke-width="1" opacity="0.09803921568627451" d="M 565.5 469 L 571 469.5 L 565.5 470 L 565.5 469 Z " /><path fill="rgb(6,50,110)" stroke="rgb(6,50,110)" stroke-width="1" opacity="0.09803921568627451" d="M 573.5 470 L 577.5 475 L 573.5 470 Z " /><path fill="rgb(6,50,110)" stroke="rgb(6,50,110)" stroke-width="1" opacity="0.09803921568627451" d="M 448 471 L 450 471.5 L 447 473.5 L 448 471 Z " /><path fill="rgb(6,50,110)" stroke="rgb(6,50,110)" stroke-width="1" opacity="0.09803921568627451" d="M 462.5 471 L 464.5 474 L 462.5 471 Z " /><path fill="rgb(6,50,110)" stroke="rgb(6,50,110)" stroke-width="1" opacity="0.09803921568627451" d="M 561.5 471 L 559.5 474 L 561.5 471 Z " /><path fill="rgb(6,50,110)" stroke="rgb(6,50,110)" stroke-width="1" opacity="0.09803921568627451" d="M 465.5 475 L 466.5 477 L 465.5 475 Z " /><path fill="rgb(6,50,110)" stroke="rgb(6,50,110)" stroke-width="1" opacity="0.09803921568627451" d="M 288.5 476 L 289.5 478 L 288.5 476 Z " /><path fill="rgb(6,50,110)" stroke="rgb(6,50,110)" stroke-width="1" opacity="0.09803921568627451" d="M 445.5 477 L 445 478.5 L 439.5 486 L 441 483.5 Q 439.9 480.2 442.5 481 L 445.5 477 Z " /><path fill="rgb(6,50,110)" stroke="rgb(6,50,110)" stroke-width="1" opacity="0.09803921568627451" d="M 579.5 478 L 580.5 480 L 579.5 478 Z " /><path fill="rgb(6,50,110)" stroke="rgb(6,50,110)" stroke-width="1" opacity="0.09803921568627451" d="M 556.5 479 L 555.5 481 L 556.5 479 Z " /><path fill="rgb(6,50,110)" stroke="rgb(6,50,110)" stroke-width="1" opacity="0.09803921568627451" d="M 468.5 480 L 479 492.5 L 472 486.5 L 468.5 480 Z " /><path fill="rgb(6,50,110)" stroke="rgb(6,50,110)" stroke-width="1" opacity="0.09803921568627451" d="M 582.5 480 L 583 482.5 L 587 487.5 L 582 483.5 L 581 481.5 L 582.5 480 Z " /><path fill="rgb(6,50,110)" stroke="rgb(6,50,110)" stroke-width="1" opacity="0.09803921568627451" d="M 349.5 481 L 350 484.5 L 349 484.5 L 349.5 481 Z " /><path fill="rgb(6,50,110)" stroke="rgb(6,50,110)" stroke-width="1" opacity="0.09803921568627451" d="M 402.5 481 L 403 509.5 L 402 509.5 L 402.5 481 Z " /><path fill="rgb(6,50,110)" stroke="rgb(6,50,110)" stroke-width="1" opacity="0.09803921568627451" d="M 554.5 482 L 553.5 484 L 554.5 482 Z " /><path fill="rgb(6,50,110)" stroke="rgb(6,50,110)" stroke-width="1" opacity="0.09803921568627451" d="M 657.5 483 L 658.5 484 L 672.5 484 L 674 483.5 L 673.5 485 L 657 485 L 657.5 483 Z " /><path fill="rgb(6,50,110)" stroke="rgb(6,50,110)" stroke-width="1" opacity="0.09803921568627451" d="M 551 485 L 553 485.5 L 545 492.5 L 546 490 L 551 486.5 L 551 485 Z " /><path fill="rgb(6,50,110)" stroke="rgb(6,50,110)" stroke-width="1" opacity="0.09803921568627451" d="M 438.5 487 L 433.5 493 L 428.5 497 L 428 495 L 432 492.5 L 433.5 490 L 438.5 487 Z " /><path fill="rgb(6,50,110)" stroke="rgb(6,50,110)" stroke-width="1" opacity="0.09803921568627451" d="M 735.5 489 L 736 492.5 L 735 492.5 L 735.5 489 Z " /><path fill="rgb(6,50,110)" stroke="rgb(6,50,110)" stroke-width="1" opacity="0.09803921568627451" d="M 590.5 491 L 593.5 495 L 590.5 491 Z " /><path fill="rgb(6,50,110)" stroke="rgb(6,50,110)" stroke-width="1" opacity="0.09803921568627451" d="M 481.5 494 L 485.5 499 L 481.5 494 Z " /><path fill="rgb(6,50,110)" stroke="rgb(6,50,110)" stroke-width="1" opacity="0.09803921568627451" d="M 541.5 495 L 539.5 498 L 541.5 495 Z " /><path fill="rgb(6,50,110)" stroke="rgb(6,50,110)" stroke-width="1" opacity="0.09803921568627451" d="M 595.5 495 L 601.5 502 L 595.5 495 Z " /><path fill="rgb(6,50,110)" stroke="rgb(6,50,110)" stroke-width="1" opacity="0.09803921568627451" d="M 735.5 496 L 736 501.5 L 735 501.5 L 735.5 496 Z " /><path fill="rgb(6,50,110)" stroke="rgb(6,50,110)" stroke-width="1" opacity="0.09803921568627451" d="M 425.5 498 L 424.5 500 L 425.5 498 Z " /><path fill="rgb(6,50,110)" stroke="rgb(6,50,110)" stroke-width="1" opacity="0.09803921568627451" d="M 487.5 499 L 488.5 501 L 487.5 499 Z " /><path fill="rgb(6,50,110)" stroke="rgb(6,50,110)" stroke-width="1" opacity="0.09803921568627451" d="M 535.5 501 L 535 502.5 L 534.5 504 L 534 502.5 L 535.5 501 Z " /><path fill="rgb(6,50,110)" stroke="rgb(6,50,110)" stroke-width="1" opacity="0.09803921568627451" d="M 489.5 502 L 491 504.5 L 490 504.5 L 489.5 502 Z " /><path fill="rgb(6,50,110)" stroke="rgb(6,50,110)" stroke-width="1" opacity="0.09803921568627451" d="M 603.5 504 L 604 509.5 L 603 509.5 L 603.5 504 Z " /><path fill="rgb(6,50,110)" stroke="rgb(6,50,110)" stroke-width="1" opacity="0.09803921568627451" d="M 533.5 505 L 534 508.5 L 533 508.5 L 533.5 505 Z " /><path fill="rgb(6,50,110)" stroke="rgb(6,50,110)" stroke-width="1" opacity="0.09803921568627451" d="M 421.5 509 L 422 511.5 L 428.5 518 L 440 528.5 L 444 534.5 L 442 533.5 L 439.5 530 L 438 529.5 L 438.5 528 Q 436.3 528.8 437 526.5 L 434 525.5 L 430 520.5 L 427 519 L 424.5 515 Q 422.3 515.8 423 513.5 Q 419.9 512.4 421.5 509 Z " /><path fill="rgb(6,50,110)" stroke="rgb(6,50,110)" stroke-width="1" opacity="0.09803921568627451" d="M 534.5 511 L 535.5 513 L 534.5 511 Z " /><path fill="rgb(6,50,110)" stroke="rgb(6,50,110)" stroke-width="1" opacity="0.09803921568627451" d="M 402.5 512 L 403 514.5 L 402 514.5 L 402.5 512 Z " /><path fill="rgb(6,50,110)" stroke="rgb(6,50,110)" stroke-width="1" opacity="0.09803921568627451" d="M 489.5 512 L 484.5 518 L 489.5 512 Z " /><path fill="rgb(6,50,110)" stroke="rgb(6,50,110)" stroke-width="1" opacity="0.09803921568627451" d="M 536 514 L 550 525.5 L 549.5 527 Q 547.8 523.9 546 525.5 L 546.5 524 L 544 522.5 L 540.5 518 Q 537.9 518.7 539 516 L 536 516 L 536 514 Z " /><path fill="rgb(6,50,110)" stroke="rgb(6,50,110)" stroke-width="1" opacity="0.09803921568627451" d="M 599.5 514 L 594.5 520 L 599.5 514 Z " /><path fill="rgb(6,50,110)" stroke="rgb(6,50,110)" stroke-width="1" opacity="0.09803921568627451" d="M 734.5 514 L 735 516.5 L 734 516.5 L 734.5 514 Z " /><path fill="rgb(6,50,110)" stroke="rgb(6,50,110)" stroke-width="1" opacity="0.09803921568627451" d="M 619.5 515 L 620 546.5 L 619 546.5 L 618 541.5 L 619 540.5 L 619 524.5 L 619 516.5 L 619.5 515 Z " /><path fill="rgb(6,50,110)" stroke="rgb(6,50,110)" stroke-width="1" opacity="0.09803921568627451" d="M 289.5 516 L 290 518.5 L 289 518.5 L 289.5 516 Z " /><path fill="rgb(6,50,110)" stroke="rgb(6,50,110)" stroke-width="1" opacity="0.09803921568627451" d="M 360.5 518 L 364 518.5 L 360.5 519 L 360.5 518 Z " /><path fill="rgb(6,50,110)" stroke="rgb(6,50,110)" stroke-width="1" opacity="0.09803921568627451" d="M 666.5 518 L 675 518 L 675 521.5 L 674 521.5 L 673.5 519 L 671.5 519 Q 665.5 520.3 666.5 518 Z " /><path fill="rgb(6,50,110)" stroke="rgb(6,50,110)" stroke-width="1" opacity="0.09803921568627451" d="M 481.5 519 L 480.5 521 L 481.5 519 Z " /><path fill="rgb(6,50,110)" stroke="rgb(6,50,110)" stroke-width="1" opacity="0.09803921568627451" d="M 478.5 522 L 473.5 528 L 478.5 522 Z " /><path fill="rgb(6,50,110)" stroke="rgb(6,50,110)" stroke-width="1" opacity="0.09803921568627451" d="M 590.5 522 L 588.5 525 L 590.5 522 Z " /><path fill="rgb(6,50,110)" stroke="rgb(6,50,110)" stroke-width="1" opacity="0.09803921568627451" d="M 472.5 529 L 470.5 532 L 472.5 529 Z " /><path fill="rgb(6,50,110)" stroke="rgb(6,50,110)" stroke-width="1" opacity="0.09803921568627451" d="M 552.5 529 L 557 535.5 L 555 536 L 552.5 529 Z " /><path fill="rgb(6,50,110)" stroke="rgb(6,50,110)" stroke-width="1" opacity="0.09803921568627451" d="M 584.5 529 L 583.5 531 L 584.5 529 Z " /><path fill="rgb(6,50,110)" stroke="rgb(6,50,110)" stroke-width="1" opacity="0.09803921568627451" d="M 582.5 532 L 581.5 534 L 582.5 532 Z " /><path fill="rgb(6,50,110)" stroke="rgb(6,50,110)" stroke-width="1" opacity="0.09803921568627451" d="M 343.5 533 L 340.5 537 L 343.5 533 Z " /><path fill="rgb(6,50,110)" stroke="rgb(6,50,110)" stroke-width="1" opacity="0.09803921568627451" d="M 658.5 533 L 659 572.5 L 658 572.5 L 658.5 533 Z " /><path fill="rgb(6,50,110)" stroke="rgb(6,50,110)" stroke-width="1" opacity="0.09803921568627451" d="M 679.5 533 L 684.5 539 L 679.5 533 Z " /><path fill="rgb(6,50,110)" stroke="rgb(6,50,110)" stroke-width="1" opacity="0.09803921568627451" d="M 727.5 533 L 722.5 539 L 727.5 533 Z " /><path fill="rgb(6,50,110)" stroke="rgb(6,50,110)" stroke-width="1" opacity="0.09803921568627451" d="M 468.5 535 L 467.5 537 L 468.5 535 Z " /><path fill="rgb(6,50,110)" stroke="rgb(6,50,110)" stroke-width="1" opacity="0.09803921568627451" d="M 557.5 537 L 563 543.5 L 558 539.5 L 557.5 537 Z " /><path fill="rgb(6,50,110)" stroke="rgb(6,50,110)" stroke-width="1" opacity="0.09803921568627451" d="M 338.5 538 L 337.5 540 L 338.5 538 Z " /><path fill="rgb(6,50,110)" stroke="rgb(6,50,110)" stroke-width="1" opacity="0.09803921568627451" d="M 445.5 538 L 446.5 540 L 445.5 538 Z " /><path fill="rgb(6,50,110)" stroke="rgb(6,50,110)" stroke-width="1" opacity="0.09803921568627451" d="M 302.5 539 L 303.5 541 L 302.5 539 Z " /><path fill="rgb(6,50,110)" stroke="rgb(6,50,110)" stroke-width="1" opacity="0.09803921568627451" d="M 578.5 539 L 576.5 542 L 578.5 539 Z " /><path fill="rgb(6,50,110)" stroke="rgb(6,50,110)" stroke-width="1" opacity="0.09803921568627451" d="M 447.5 541 L 452 544.5 L 450.5 545 L 447.5 541 Z " /><path fill="rgb(6,50,110)" stroke="rgb(6,50,110)" stroke-width="1" opacity="0.09803921568627451" d="M 464.5 541 L 464 542.5 Q 464.8 544.8 462.5 544 L 464.5 541 Z " /><path fill="rgb(6,50,110)" stroke="rgb(6,50,110)" stroke-width="1" opacity="0.09803921568627451" d="M 713.5 543 L 712.5 545 L 713.5 543 Z " /><path fill="rgb(6,50,110)" stroke="rgb(6,50,110)" stroke-width="1" opacity="0.09803921568627451" d="M 324.5 544 L 327 544.5 L 324.5 545 L 324.5 544 Z " /><path fill="rgb(6,50,110)" stroke="rgb(6,50,110)" stroke-width="1" opacity="0.09803921568627451" d="M 564.5 544 L 565.5 546 L 564.5 544 Z " /><path fill="rgb(6,50,110)" stroke="rgb(6,50,110)" stroke-width="1" opacity="0.09803921568627451" d="M 696.5 544 L 699 544.5 L 696.5 545 L 696.5 544 Z " /><path fill="rgb(6,50,110)" stroke="rgb(6,50,110)" stroke-width="1" opacity="0.09803921568627451" d="M 363.5 545 L 364 573.5 L 363 573.5 L 363.5 545 Z " /><path fill="rgb(6,50,110)" stroke="rgb(6,50,110)" stroke-width="1" opacity="0.09803921568627451" d="M 454.5 545 L 458 545.5 L 454.5 546 L 454.5 545 Z " /><path fill="rgb(6,50,110)" stroke="rgb(6,50,110)" stroke-width="1" opacity="0.09803921568627451" d="M 567.5 545 L 571 545.5 L 567.5 546 L 567.5 545 Z " /><path fill="rgb(6,50,110)" stroke="rgb(6,50,110)" stroke-width="1" opacity="0.09803921568627451" d="M 619.5 548 L 620 550.5 L 619 550.5 L 619.5 548 Z " /><path fill="rgb(6,50,110)" stroke="rgb(6,50,110)" stroke-width="1" opacity="0.09803921568627451" d="M 619.5 568 L 620 570.5 L 619 570.5 L 619.5 568 Z " /><path fill="rgb(6,50,110)" stroke="rgb(6,50,110)" stroke-width="1" opacity="0.09803921568627451" d="M 618.5 574 L 617.5 576 L 618.5 574 Z " /><path fill="rgb(6,50,110)" stroke="rgb(6,50,110)" stroke-width="1" opacity="0.09803921568627451" d="M 657.5 579 L 658 581.5 L 657 581.5 L 657.5 579 Z " /><path fill="rgb(6,50,110)" stroke="rgb(6,50,110)" stroke-width="1" opacity="0.09803921568627451" d="M 364.5 580 L 365 582.5 L 364 582.5 L 364.5 580 Z " /><path fill="rgb(6,50,110)" stroke="rgb(6,50,110)" stroke-width="1" opacity="0.09803921568627451" d="M 615.5 580 L 614.5 582 L 615.5 580 Z " /><path fill="rgb(6,50,110)" stroke="rgb(6,50,110)" stroke-width="1" opacity="0.09803921568627451" d="M 407.5 581 L 418.5 593 L 407.5 581 Z " /><path fill="rgb(6,50,110)" stroke="rgb(6,50,110)" stroke-width="1" opacity="0.09803921568627451" d="M 610 585 L 612 585.5 L 606 590.5 L 610 585 Z " /><path fill="rgb(6,50,110)" stroke="rgb(6,50,110)" stroke-width="1" opacity="0.09803921568627451" d="M 366.5 591 L 369 594.5 L 367 593.5 L 366.5 591 Z " /><path fill="rgb(6,50,110)" stroke="rgb(6,50,110)" stroke-width="1" opacity="0.09803921568627451" d="M 422.5 595 L 429.5 603 L 422.5 595 Z " /><path fill="rgb(6,50,110)" stroke="rgb(6,50,110)" stroke-width="1" opacity="0.09803921568627451" d="M 600.5 595 L 597.5 599 L 600.5 595 Z " /><path fill="rgb(6,50,110)" stroke="rgb(6,50,110)" stroke-width="1" opacity="0.09803921568627451" d="M 373.5 604 L 374.5 606 L 373.5 604 Z " /><path fill="rgb(6,50,110)" stroke="rgb(6,50,110)" stroke-width="1" opacity="0.09803921568627451" d="M 376.5 608 L 377.5 610 L 376.5 608 Z " /><path fill="rgb(6,50,110)" stroke="rgb(6,50,110)" stroke-width="1" opacity="0.09803921568627451" d="M 645.5 608 L 644.5 610 L 645.5 608 Z " /><path fill="rgb(6,50,110)" stroke="rgb(6,50,110)" stroke-width="1" opacity="0.09803921568627451" d="M 436.5 609 L 440.5 614 L 436.5 609 Z " /><path fill="rgb(6,50,110)" stroke="rgb(6,50,110)" stroke-width="1" opacity="0.09803921568627451" d="M 640.5 614 L 636.5 619 L 640.5 614 Z " /><path fill="rgb(6,50,110)" stroke="rgb(6,50,110)" stroke-width="1" opacity="0.09803921568627451" d="M 382.5 615 L 384.5 618 L 382.5 615 Z " /><path fill="rgb(6,50,110)" stroke="rgb(6,50,110)" stroke-width="1" opacity="0.09803921568627451" d="M 580.5 615 L 579.5 617 L 580.5 615 Z " /><path fill="rgb(6,50,110)" stroke="rgb(6,50,110)" stroke-width="1" opacity="0.09803921568627451" d="M 443.5 617 L 444.5 619 L 443.5 617 Z " /><path fill="rgb(6,50,110)" stroke="rgb(6,50,110)" stroke-width="1" opacity="0.09803921568627451" d="M 392.5 624 L 395.5 628 L 392.5 624 Z " /><path fill="rgb(6,50,110)" stroke="rgb(6,50,110)" stroke-width="1" opacity="0.09803921568627451" d="M 627.5 626 L 625.5 629 L 627.5 626 Z " /><path fill="rgb(6,50,110)" stroke="rgb(6,50,110)" stroke-width="1" opacity="0.09803921568627451" d="M 400.5 631 L 404.5 636 L 400.5 631 Z " /><path fill="rgb(6,50,110)" stroke="rgb(6,50,110)" stroke-width="1" opacity="0.09803921568627451" d="M 620.5 632 L 610.5 643 L 620.5 632 Z " /><path fill="rgb(6,50,110)" stroke="rgb(6,50,110)" stroke-width="1" opacity="0.09803921568627451" d="M 569.5 633 L 570 634.5 L 568.5 638 L 568 635.5 L 569.5 633 Z " /><path fill="rgb(6,50,110)" stroke="rgb(6,50,110)" stroke-width="1" opacity="0.09803921568627451" d="M 412.5 643 L 413.5 645 L 412.5 643 Z " /><path fill="rgb(6,50,110)" stroke="rgb(6,50,110)" stroke-width="1" opacity="0.09803921568627451" d="M 454.5 643 L 455 648.5 L 454 648.5 L 454.5 643 Z " /><path fill="rgb(6,50,110)" stroke="rgb(6,50,110)" stroke-width="1" opacity="0.09803921568627451" d="M 417.5 654 L 418 665.5 L 417 665.5 L 417 656.5 L 416 655.5 L 417.5 654 Z " /><path fill="rgb(6,50,110)" stroke="rgb(6,50,110)" stroke-width="1" opacity="0.09803921568627451" d="M 604.5 656 L 605 660.5 L 604 660.5 L 604.5 656 Z " /><path fill="rgb(6,50,110)" stroke="rgb(6,50,110)" stroke-width="1" opacity="0.09803921568627451" d="M 454.5 687 L 455.5 868 L 456 859.5 L 457 858.5 Q 454.8 857.3 457.5 856 Q 458.8 858.3 460 855.5 L 460.5 854 L 461 855.5 Q 458.3 856.6 459 860 L 461 859.5 Q 458.8 858.2 461.5 857 L 461.5 859 L 464 858.5 L 463.5 855 L 465.5 856 L 467.5 852 L 468.5 855 L 471 853.5 L 471 855.5 L 471.5 857 L 472.5 855 L 476 855.5 Q 476.8 853.3 474.5 854 L 472 853.5 L 473.5 851 L 474.5 853 L 475.5 850 Q 476.7 852.3 478 849.5 L 477.5 848 L 479 849.5 L 478.5 854 L 476 852.5 L 477.5 855 L 482.5 856 L 483 854.5 L 480 853.5 L 480 849.5 L 482.5 847 Q 479.4 850 482.5 853 L 484.5 854 L 485 851.5 L 483 851.5 Q 484.5 848.5 486 851.5 L 485 854.5 L 489.5 856 L 490.5 854 L 489 853.5 L 491.5 853 Q 492.6 855.8 496 855 L 496.5 853 Q 498 855.5 499.5 852 L 501 851.5 L 499 850.5 L 501 850 L 500.5 848 L 499 848.5 L 500.5 847 L 503.5 848 L 508 844.5 Q 502.6 847.3 504.5 850 L 502 848.5 L 503.5 851 L 505.5 852 Q 508.3 850.8 506 849.5 L 506.5 848 L 507 850 L 509 849.5 L 508.5 848 L 513 848.5 Q 510.7 849.8 513.5 851 L 515 850.5 Q 512.8 851.8 515.5 853 L 519 850.5 L 518.5 849 L 519.5 850 L 521.5 848 L 524 848.5 Q 521.8 849.8 524.5 851 L 526 850.5 L 525 848.5 L 528 847.5 L 529.5 845 L 533 846.5 L 530.5 847 L 529 846.5 L 528 849.5 L 530.5 848 L 533.5 849 L 535 847.5 Q 532.8 846.3 535.5 845 Q 533.7 847.2 538 849.5 L 539.5 852 L 541 851.5 L 539 849.5 L 540 846.5 L 540.5 845 L 541 846.5 Q 538.3 848.2 542.5 850 Q 543.8 847.8 545 850.5 L 544 853.5 L 546.5 855 L 545 852.5 L 546.5 851 L 546.5 853 L 548.5 854 L 550 853.5 L 549.5 855 L 551.5 856 L 552 854.5 L 551.5 853 L 554 853.5 L 553 855.5 L 555 854.5 L 554 851.5 L 556 850.5 L 556 852.5 L 557.5 855 Q 560.8 856.1 560 853.5 L 560 851.5 L 560.5 850 L 562 850.5 L 563 844.5 L 562.5 843 L 565 847.5 Q 561 849.5 565 851.5 L 566 855.5 L 566 857.5 L 565 862.5 L 566 863.5 L 566 906.5 L 570.5 912 L 574.5 914 L 576.5 914 L 578.5 913 L 579.5 915 L 581.5 915 L 586.5 914 L 588.5 914 L 594.5 914 L 603 907.5 L 604 904.5 L 604.5 809 L 605.5 870 L 606.5 862 L 608 871.5 L 608 873.5 L 608.5 879 L 611 877.5 Q 608.3 878.3 609 882.5 L 611 882.5 L 611.5 884 L 612 882 L 614 882.5 L 613 884.5 L 616 883.5 L 615.5 887 L 617 887.5 Q 614.8 888.8 617.5 890 L 618.5 888 L 623 893.5 L 621 893.5 Q 620.3 895.8 622.5 895 L 624 897.5 L 623.5 899 Q 625.8 898.3 625 900.5 L 625.5 902 L 624 901.5 L 626.5 907 L 629 908.5 L 628.5 911 L 625.5 910 L 627 912.5 L 628 914.5 L 628 916.5 L 629 918.5 L 627.5 918 Q 624.2 916.9 625 919.5 L 623 922.5 L 624 924.5 L 621 925.5 Q 620.3 927.8 622.5 927 L 623.5 929 L 617.5 927 L 619.5 933 L 616 932 L 616.5 934 L 618 933.5 L 615 934.5 L 616 936.5 L 614.5 936 L 611 937.5 L 612 938.5 Q 608.9 940.3 610.5 942 L 608 940.5 L 610 943.5 L 608 944.5 Q 610.2 943.3 607.5 942 L 605.5 946 L 605.5 944 L 603 945.5 Q 605.3 946.7 602.5 948 Q 597.1 946.1 598 949.5 L 600 949.5 L 599 952 L 595.5 951 L 595.5 953 Q 594.3 950.8 593 953.5 Q 595.8 955.3 591.5 957 L 588 956.5 Q 588.8 958.8 586.5 958 L 585.5 956 Q 586.8 958.3 588 955.5 L 587.5 954 L 590 955.5 L 587.5 951 L 586.5 953 L 585 952.5 L 586 954.5 L 584.5 954 L 583 954.5 L 584 956.5 L 579 955.5 L 580.5 959 L 581.5 958 L 585 961.5 L 582 961.5 Q 584.3 960.3 581.5 959 L 580.5 962 L 577.5 961 L 576 960.5 L 578 959.5 L 578.5 961 Q 581.3 959.7 579 958.5 L 578.5 957 L 577 957.5 L 577.5 956 L 574.5 958 L 572.5 957 L 573 958.5 L 572.5 960 L 572 958 L 568.5 960 L 568.5 958 L 566 959.5 L 568.5 962 Q 570.3 958.3 572 961.5 L 571.5 963 L 570.5 961 L 569.5 964 L 567.5 964 Q 565.3 964.8 566 962.5 L 564 963.5 L 564.5 965 L 563 963.5 L 564.5 959 L 561 961.5 Q 563.3 962.8 560.5 964 L 559.5 961 L 558 961.5 L 559 963.5 L 558 963.5 L 557 961.5 L 557.5 960 L 555.5 961 L 555.5 959 L 553.5 958 L 553 959.5 L 554 962.5 L 555 964.5 L 554.5 967 L 552 966.5 L 553.5 964 L 551.5 965 L 550.5 963 L 549.5 965 L 548.5 963 L 547 964.5 L 548.5 967 Q 546.3 967.8 547 965.5 L 545.5 966 L 541 962.5 L 543 965.5 L 541 965.5 L 542.5 968 L 544 967.5 L 539 969.5 L 540 966.5 L 539.5 965 L 538 965.5 Q 540.3 964.3 537.5 963 L 536.5 966 L 534.5 964 L 532 964.5 L 533.5 967 L 535 966.5 L 533.5 968 L 530.5 967 L 528 968.5 L 531 964.5 L 528.5 964 L 525.5 965 L 524 964.5 L 525.5 967 L 528 965.5 Q 524.9 967.3 526.5 969 Q 524.8 965.9 523 967.5 L 523 965.5 L 524 963.5 L 518.5 961 Q 515.8 962.3 518 963.5 L 517.5 965 L 516.5 963 L 515.5 965 L 515 963.5 L 516.5 961 L 514.5 962 L 513 961.5 L 514 963.5 L 511.5 964 L 509.5 965 L 508.5 963 L 510 962.5 Q 508.8 959.7 507.5 962 L 505.5 961 L 503 962.5 L 506 964.5 L 506.5 963 L 509 966.5 L 503 965.5 L 503.5 964 L 501 964.5 L 501.5 966 L 499 965.5 L 499.5 961 Q 500.8 963.3 502 960.5 L 498.5 960 L 497 961.5 L 497.5 965 L 494.5 964 L 492.5 963 L 489 963.5 L 489.5 962 L 486.5 961 L 485.5 964 Q 483.8 960.9 482 962.5 L 486 960.5 L 482.5 959 L 481 959.5 Q 483.3 960.8 480.5 962 L 478.5 961 L 480 963.5 L 478.5 965 L 476 964.5 L 478 960.5 L 478.5 959 L 480 959.5 Q 480.7 956.5 477 958 L 476.5 960 L 475.5 959 L 473 960.5 L 475 957.5 L 473 957.5 L 472.5 956 Q 469.8 957.3 472 958.5 Q 471.3 962.3 473.5 963 L 476 961.5 L 474 963.5 L 474.5 967 Q 471.8 965.8 474 964.5 L 471 961.5 L 470.5 960 L 468.5 963 L 469 961.5 L 471 958.5 L 469.5 958 L 467 959.5 Q 469.5 961 466 962.5 L 468 964.5 L 466.5 966 L 465.5 963 L 464.5 966 L 463 964.5 Q 466.1 962.8 464.5 961 Q 465.8 963.3 467 960.5 L 466.5 958 Q 464.3 958.8 465 956.5 L 463 957.5 L 464.5 960 L 463 959.5 L 462 961.5 Q 464.2 962.8 461.5 964 L 462 960.5 L 463 958.5 L 462 955.5 L 461.5 954 L 460 957.5 L 461 959.5 L 459 958.5 L 458.5 957 L 456.5 960 L 456 958.5 L 457.5 956 L 455.5 957 L 453 956.5 L 454 954.5 L 452 955.5 L 453.5 959 L 455 958.5 Q 452.8 959.7 455.5 961 L 458 962.5 L 456.5 962 L 454.5 961 L 452 962.5 Q 455.7 960.8 452.5 959 Q 450.8 962.8 449 959.5 L 452 958.5 L 450 957.5 L 450.5 956 L 446 956.5 L 449 957.5 L 447.5 959 L 443.5 959 L 442 957.5 L 442.5 956 L 439 955.5 L 442.5 955 Q 444.5 959 446.5 955 L 448 954.5 L 446.5 953 Q 445 956.5 443.5 954 L 441.5 953 L 437 954.5 L 437.5 956 L 434.5 954 L 435 955.5 L 434.5 957 L 432.5 954 L 430 955.5 L 432 952 L 434 951.5 L 430.5 949 L 430 950.5 L 431 952.5 L 429 953.5 Q 431.3 952.3 428.5 951 L 427 951.5 L 427.5 953 L 425.5 953 L 423 950.5 L 425.5 952 L 427 950.5 L 425 950 L 424.5 948 L 421.5 949 L 420 949.5 L 423.5 954 L 419 951 L 420 948.5 L 419.5 946 Q 417.3 945.3 418 947.5 L 417 947.5 L 415 944.5 L 413 944.5 L 413.5 943 L 409.5 944 L 410.5 941 L 408.5 942 L 407 939.5 Q 409.3 938.3 406.5 937 L 405 937.5 L 403.5 935 L 402 935.5 L 403.5 938 L 401 935.5 L 401 933.5 L 400 929 Q 397 930.3 398 926.5 L 397 926.5 L 396.5 928 L 396 926 L 394 925.5 L 394.5 924 Q 390.3 925.3 392 920.5 L 391.5 919 L 395 919.5 Q 395.8 917.3 393.5 918 L 393.5 917 L 395 916.5 L 391.5 916 L 391.5 918 Q 388.5 916.5 391.5 915 L 393 914.5 L 391 914 L 390 911.5 L 392 911.5 L 391 909.5 L 393 909.5 L 391.5 907 L 390 907.5 Q 392.8 906.4 392 903 L 394 902.5 L 392 899.5 L 395 898.5 L 392 897.5 L 397 895.5 L 397.5 897 L 398 895 Q 400.7 896.1 400 893.5 L 400 889.5 L 401.5 888 L 402.5 891 Q 404.8 891.8 404 889.5 L 403.5 886 L 406 887.5 Q 405.3 885.3 407.5 886 L 407.5 882 L 409 882.5 L 408 879.5 L 411 878.5 L 410 876.5 Q 412 878.2 414 874.5 L 413 872.5 L 416 870.5 L 415 868.5 L 417 866.5 L 417 832.5 L 417 830.5 L 417.5 781 L 418 871 Q 414.7 869.7 416 874.5 L 417 875.5 L 417 898.5 Q 419.7 900.2 418 906.5 L 422.5 912 L 433.5 915 L 440.5 915 L 444.5 913 L 445.5 914 Q 451.3 912.8 454 908.5 Q 456.8 899.8 455 886.5 L 454 885.5 L 454.5 687 Z M 536 848 L 533 852 L 537 851 L 536 848 Z M 522 849 L 520 851 L 523 851 L 522 849 Z M 531 849 L 529 851 L 531 851 L 532 852 L 531 849 Z M 508 851 L 507 853 L 509 852 L 508 851 Z M 538 851 L 536 852 L 537 854 L 539 853 L 538 851 Z M 513 852 Q 509 854 514 856 L 515 854 L 514 854 L 514 853 L 513 852 Z M 519 852 L 518 854 L 518 855 L 520 854 Q 522 855 521 853 L 519 852 Z M 526 852 L 527 854 L 529 854 L 531 853 L 526 852 Z M 510 853 Q 508 856 511 855 L 510 853 Z M 537 854 L 537 856 L 539 855 L 537 854 Z M 558 856 L 558 857 L 560 857 L 558 856 Z M 394 920 L 393 923 L 394 923 L 394 920 Z M 609 938 Q 609 942 611 939 L 609 938 Z M 592 950 L 593 951 Q 594 953 595 951 L 592 950 Z M 591 953 L 591 956 L 593 955 L 591 953 Z M 450 954 L 450 955 L 452 955 L 450 954 Z M 488 958 L 487 961 L 490 961 L 490 959 L 488 958 Z M 552 958 L 551 961 L 553 961 L 552 958 Z M 546 959 L 545 963 Q 543 964 546 965 Q 548 964 546 963 L 549 962 L 546 959 Z M 525 960 L 523 962 L 525 962 L 525 960 Z M 539 960 L 537 962 L 539 963 L 539 960 Z M 491 961 Q 491 965 493 962 L 491 961 Z M 495 961 L 493 963 L 495 963 Q 496 965 497 963 L 495 961 Z M 527 961 L 525 963 L 526 964 L 529 963 L 536 964 L 537 963 L 536 962 L 532 962 L 527 961 Z " /><path fill="rgb(6,50,110)" stroke="rgb(6,50,110)" stroke-width="1" opacity="0.09803921568627451" d="M 604.5 790 L 605 792.5 L 604 792.5 L 604.5 790 Z " /><path fill="rgb(6,50,110)" stroke="rgb(6,50,110)" stroke-width="1" opacity="0.09803921568627451" d="M 510.5 843 L 509.5 845 L 510.5 843 Z " /><path fill="rgb(6,50,110)" stroke="rgb(6,50,110)" stroke-width="1" opacity="0.09803921568627451" d="M 524.5 843 L 521.5 847 L 524.5 843 Z " /><path fill="rgb(6,50,110)" stroke="rgb(6,50,110)" stroke-width="1" opacity="0.09803921568627451" d="M 526.5 843 Q 529.5 844.5 526.5 846 L 526.5 843 Z " /><path fill="rgb(6,50,110)" stroke="rgb(6,50,110)" stroke-width="1" opacity="0.09803921568627451" d="M 532.5 843 L 535 843.5 Q 532.9 846.8 532.5 843 Z " /><path fill="rgb(6,50,110)" stroke="rgb(6,50,110)" stroke-width="1" opacity="0.09803921568627451" d="M 501.5 844 L 500.5 846 L 501.5 844 Z " /><path fill="rgb(6,50,110)" stroke="rgb(6,50,110)" stroke-width="1" opacity="0.09803921568627451" d="M 485.5 845 L 484.5 847 L 485.5 845 Z " /><path fill="rgb(6,50,110)" stroke="rgb(6,50,110)" stroke-width="1" opacity="0.09803921568627451" d="M 491.5 845 Q 493.2 848.1 495 846.5 L 493.5 848 L 491 847.5 L 491.5 845 Z " /><path fill="rgb(6,50,110)" stroke="rgb(6,50,110)" stroke-width="1" opacity="0.09803921568627451" d="M 547.5 845 L 549 846.5 L 548.5 849 L 547 847.5 L 547.5 845 Z " /><path fill="rgb(6,50,110)" stroke="rgb(6,50,110)" stroke-width="1" opacity="0.09803921568627451" d="M 487.5 847 L 489.5 850 L 486 848.5 L 487.5 847 Z " /><path fill="rgb(6,50,110)" stroke="rgb(6,50,110)" stroke-width="1" opacity="0.09803921568627451" d="M 515.5 847 L 518 847.5 L 516.5 849 L 514 848.5 L 515.5 847 Z " /><path fill="rgb(6,50,110)" stroke="rgb(6,50,110)" stroke-width="1" opacity="0.09803921568627451" d="M 544.5 847 L 546.5 850 L 544.5 847 Z " /><path fill="rgb(6,50,110)" stroke="rgb(6,50,110)" stroke-width="1" opacity="0.09803921568627451" d="M 551.5 848 L 552.5 852 L 550 851.5 L 551.5 848 Z " /><path fill="rgb(6,50,110)" stroke="rgb(6,50,110)" stroke-width="1" opacity="0.09803921568627451" d="M 491.5 849 L 494 849.5 L 494 851.5 L 495 853.5 L 493 852.5 L 492.5 851 L 491 851.5 L 491.5 849 Z " /><path fill="rgb(6,50,110)" stroke="rgb(6,50,110)" stroke-width="1" opacity="0.09803921568627451" d="M 495.5 850 L 498 850.5 Q 498.7 853.5 495 852 L 495.5 850 Z " /><path fill="rgb(6,50,110)" stroke="rgb(6,50,110)" stroke-width="1" opacity="0.09803921568627451" d="M 557.5 850 L 559 851.5 L 558.5 854 L 557 852.5 L 557.5 850 Z " /><path fill="rgb(6,50,110)" stroke="rgb(6,50,110)" stroke-width="1" opacity="0.09803921568627451" d="M 487.5 851 L 488 853.5 L 487 853.5 L 487.5 851 Z " /><path fill="rgb(6,50,110)" stroke="rgb(6,50,110)" stroke-width="1" opacity="0.09803921568627451" d="M 626.5 904 L 627.5 906 L 626.5 904 Z " /><path fill="rgb(6,50,110)" stroke="rgb(6,50,110)" stroke-width="1" opacity="0.09803921568627451" d="M 629.5 914 Q 632.5 915.5 629.5 917 L 629.5 914 Z " /><path fill="rgb(6,50,110)" stroke="rgb(6,50,110)" stroke-width="1" opacity="0.09803921568627451" d="M 409.5 945 L 408.5 947 L 409.5 945 Z " /><path fill="rgb(6,50,110)" stroke="rgb(6,50,110)" stroke-width="1" opacity="0.09803921568627451" d="M 594.5 956 L 595.5 958 L 594.5 956 Z " /><path fill="rgb(6,50,110)" stroke="rgb(6,50,110)" stroke-width="1" opacity="0.09803921568627451" d="M 590.5 958 L 589.5 960 L 590.5 958 Z " /><path fill="rgb(6,50,110)" stroke="rgb(6,50,110)" stroke-width="1" opacity="0.09803921568627451" d="M 438.5 959 L 437.5 961 L 438.5 959 Z " /><path fill="rgb(6,50,110)" stroke="rgb(6,50,110)" stroke-width="1" opacity="0.09803921568627451" d="M 440.5 959 L 441.5 961 L 440.5 959 Z " /><path fill="rgb(6,50,110)" stroke="rgb(6,50,110)" stroke-width="1" opacity="0.09803921568627451" d="M 574.5 959 L 575 960.5 L 573 961.5 L 574.5 959 Z " /><path fill="rgb(6,50,110)" stroke="rgb(6,50,110)" stroke-width="1" opacity="0.09803921568627451" d="M 447.5 960 L 448.5 962 L 447.5 960 Z " /><path fill="rgb(6,50,110)" stroke="rgb(6,50,110)" stroke-width="1" opacity="0.09803921568627451" d="M 458.5 960 L 459.5 962 L 458.5 960 Z " /><path fill="rgb(6,50,110)" stroke="rgb(6,50,110)" stroke-width="1" opacity="0.09803921568627451" d="M 555.5 962 L 556.5 964 L 555.5 962 Z " /><path fill="rgb(6,50,110)" stroke="rgb(6,50,110)" stroke-width="1" opacity="0.09803921568627451" d="M 576.5 962 L 575.5 964 L 576.5 962 Z " /><path fill="rgb(6,50,110)" stroke="rgb(6,50,110)" stroke-width="1" opacity="0.09803921568627451" d="M 459.5 963 L 457.5 966 L 459.5 963 Z " /><path fill="rgb(6,50,110)" stroke="rgb(6,50,110)" stroke-width="1" opacity="0.09803921568627451" d="M 470.5 963 Q 473.5 964.5 470.5 966 Q 467.5 964.5 470.5 963 Z " /><path fill="rgb(6,50,110)" stroke="rgb(6,50,110)" stroke-width="1" opacity="0.09803921568627451" d="M 520.5 963 Q 523.1 962.2 522 965.5 L 521 965.5 L 520.5 964 L 519 964.5 L 520.5 963 Z " /><path fill="rgb(6,50,110)" stroke="rgb(6,50,110)" stroke-width="1" opacity="0.09803921568627451" d="M 579.5 963 L 578.5 965 L 579.5 963 Z " /><path fill="rgb(6,50,110)" stroke="rgb(6,50,110)" stroke-width="1" opacity="0.09803921568627451" d="M 481.5 964 L 484 964.5 L 483.5 967 Q 481.8 963.9 480 965.5 L 481.5 964 Z " /><path fill="rgb(6,50,110)" stroke="rgb(6,50,110)" stroke-width="1" opacity="0.09803921568627451" d="M 571.5 964 L 570.5 966 L 571.5 964 Z " /><path fill="rgb(6,50,110)" stroke="rgb(6,50,110)" stroke-width="1" opacity="0.09803921568627451" d="M 489.5 965 L 494 965.5 L 490 968.5 L 491 967.5 L 489.5 965 Z " /><path fill="rgb(6,50,110)" stroke="rgb(6,50,110)" stroke-width="1" opacity="0.09803921568627451" d="M 511.5 965 L 512 966.5 L 511.5 969 L 510 968.5 L 509.5 970 L 509 968.5 L 511.5 965 Z " /><path fill="rgb(6,50,110)" stroke="rgb(6,50,110)" stroke-width="1" opacity="0.09803921568627451" d="M 476.5 966 L 477.5 968 L 476.5 966 Z " /><path fill="rgb(6,50,110)" stroke="rgb(6,50,110)" stroke-width="1" opacity="0.09803921568627451" d="M 495.5 966 L 495.5 969 Q 492.5 967.5 495.5 966 Z " /><path fill="rgb(6,50,110)" stroke="rgb(6,50,110)" stroke-width="1" opacity="0.09803921568627451" d="M 497.5 966 Q 499 969.5 500.5 967 L 504 969.5 L 503.5 972 L 501 971.5 Q 504.7 969.8 501.5 968 L 499.5 969 L 497 968.5 L 497.5 966 Z " /><path fill="rgb(6,50,110)" stroke="rgb(6,50,110)" stroke-width="1" opacity="0.09803921568627451" d="M 515.5 966 L 517 966.5 L 513.5 969 L 515.5 966 Z " /><path fill="rgb(6,50,110)" stroke="rgb(6,50,110)" stroke-width="1" opacity="0.09803921568627451" d="M 519.5 966 L 520.5 970 L 519.5 969 L 517 970.5 L 519.5 966 Z " /><path fill="rgb(6,50,110)" stroke="rgb(6,50,110)" stroke-width="1" opacity="0.09803921568627451" d="M 470.5 967 L 471.5 969 L 470.5 967 Z " /><path fill="rgb(6,50,110)" stroke="rgb(6,50,110)" stroke-width="1" opacity="0.09803921568627451" d="M 504.5 967 L 505.5 969 L 504.5 967 Z " /><path fill="rgb(6,50,110)" stroke="rgb(6,50,110)" stroke-width="1" opacity="0.09803921568627451" d="M 536.5 967 L 537.5 969 L 536.5 968 L 534 969.5 L 536.5 967 Z " /><path fill="rgb(6,50,110)" stroke="rgb(6,50,110)" stroke-width="1" opacity="0.09803921568627451" d="M 545.5 967 L 546.5 969 L 545.5 967 Z " /><path fill="rgb(6,50,110)" stroke="rgb(6,50,110)" stroke-width="1" opacity="0.09803921568627451" d="M 550.5 967 L 552.5 970 L 550.5 967 Z " /><path fill="rgb(6,50,110)" stroke="rgb(6,50,110)" stroke-width="1" opacity="0.09803921568627451" d="M 557.5 967 Q 562.5 969.5 557.5 972 L 559 969.5 L 557.5 967 Z " /><path fill="rgb(6,50,110)" stroke="rgb(6,50,110)" stroke-width="1" opacity="0.09803921568627451" d="M 560.5 967 L 561.5 969 L 560.5 967 Z " /><path fill="rgb(6,50,110)" stroke="rgb(6,50,110)" stroke-width="1" opacity="0.09803921568627451" d="M 555.5 968 L 556.5 970 L 554 969.5 L 555.5 968 Z " /><path fill="rgb(6,50,110)" stroke="rgb(6,50,110)" stroke-width="1" opacity="0.09803921568627451" d="M 544.5 969 L 543.5 971 L 544.5 969 Z " /><path fill="rgb(6,50,110)" stroke="rgb(6,50,110)" stroke-width="1" opacity="0.09803921568627451" d="M 496.5 970 L 495.5 972 L 496.5 970 Z " /><path fill="rgb(6,50,110)" stroke="rgb(6,50,110)" stroke-width="1" opacity="0.09803921568627451" d="M 537.5 970 L 538.5 972 L 536 971.5 L 537.5 970 Z " /><path fill="rgb(6,50,110)" stroke="rgb(6,50,110)" stroke-width="1" opacity="0.09803921568627451" d="M 550.5 970 L 551.5 972 L 550.5 970 Z " /><path fill="rgb(6,50,110)" stroke="rgb(6,50,110)" stroke-width="1" opacity="0.09803921568627451" d="M 524.5 971 L 523.5 973 L 524.5 971 Z " /><path fill="rgb(6,50,110)" stroke="rgb(6,50,110)" stroke-width="1" opacity="0.09803921568627451" d="M 530.5 972 L 529.5 974 L 530.5 972 Z " /><path fill="rgb(0,0,0)" stroke="rgb(0,0,0)" stroke-width="1" opacity="0" d="M 0 0 L 1024 0 L 1024 1024 L 0 1024 L 0 0 Z M 494 109 L 493 110 L 475 111 L 454 115 L 422 124 L 390 138 L 374 149 L 362 164 L 359 173 L 359 183 L 358 184 L 359 185 L 359 207 L 360 208 L 359 212 L 360 215 L 360 217 L 359 220 Q 362 225 361 235 L 361 237 L 349 237 Q 349 224 342 217 L 333 209 L 321 206 L 311 207 L 303 211 Q 291 218 289 235 L 289 237 L 288 246 L 288 250 L 289 253 L 289 261 Q 291 266 288 268 L 291 279 L 295 286 L 306 295 L 318 298 Q 330 298 338 292 L 347 281 L 349 273 L 351 271 L 363 271 L 364 301 L 364 305 L 364 329 L 363 330 L 364 331 L 364 343 L 365 344 L 365 361 L 352 361 L 349 360 Q 348 349 342 343 Q 337 335 327 332 L 312 332 L 299 339 L 290 352 L 288 367 L 288 369 L 288 383 L 287 384 L 289 390 L 288 394 L 291 404 L 294 408 L 294 410 Q 297 409 296 412 L 303 417 L 304 420 L 306 419 L 316 423 Q 322 425 324 422 L 326 423 L 338 417 Q 347 410 349 397 L 351 397 L 352 396 L 364 396 L 365 400 L 365 435 L 364 440 L 365 442 L 364 444 L 364 465 L 364 467 L 364 481 L 363 482 L 364 485 L 360 484 Q 358 487 353 485 L 351 485 L 348 473 L 343 464 Q 336 455 324 452 Q 309 451 302 458 L 292 470 L 290 477 L 290 479 L 289 479 L 289 481 L 288 484 L 289 485 L 289 519 L 293 530 L 299 538 L 314 545 L 327 545 L 338 540 L 347 529 L 349 524 L 349 520 L 351 518 L 353 519 L 355 518 L 357 518 L 364 519 L 363 526 L 364 531 L 364 537 L 363 544 L 363 546 L 363 574 L 366 590 L 366 592 L 373 605 L 382 616 L 406 636 Q 414 642 417 653 L 416 656 L 418 667 L 417 670 L 418 671 L 418 752 L 418 754 L 418 768 L 417 769 L 418 773 L 417 776 L 418 779 L 418 781 L 417 782 L 417 831 L 416 832 L 417 833 L 417 867 L 417 869 L 415 869 Q 418 870 417 875 L 416 875 Q 417 870 415 871 L 413 874 L 413 878 L 412 877 L 409 883 L 409 885 L 406 886 L 404 891 L 402 890 L 400 894 L 398 897 L 398 899 L 396 898 L 396 900 Q 395 902 394 900 L 393 902 L 394 903 Q 391 902 392 906 L 393 909 L 391 913 Q 390 915 393 914 L 394 914 L 391 916 L 395 917 L 393 918 L 395 918 L 394 923 L 393 921 L 392 921 Q 390 925 395 924 L 394 926 L 396 926 L 397 928 L 399 925 L 398 927 Q 397 930 400 929 L 401 934 L 403 933 L 402 935 L 404 935 L 405 938 L 408 939 L 407 941 L 409 940 L 411 941 L 410 943 L 414 943 L 416 943 L 415 945 Q 414 947 417 946 L 419 946 L 421 945 L 420 949 L 422 949 L 425 948 L 425 950 L 429 951 L 431 953 L 430 951 L 431 949 L 434 951 L 434 952 Q 431 951 432 954 L 434 953 L 436 954 L 435 953 L 438 954 L 442 953 L 444 954 L 447 953 L 448 955 L 446 956 L 451 956 L 451 958 Q 454 959 452 955 L 449 955 L 452 954 L 454 954 L 456 957 L 458 956 L 459 959 L 461 960 L 458 955 L 461 956 L 461 955 L 461 953 L 462 956 Q 463 958 465 956 L 465 958 L 468 959 L 473 956 L 473 958 L 475 957 L 477 960 L 477 958 Q 481 956 480 960 L 482 959 L 484 960 L 486 956 L 485 960 L 487 961 L 489 957 L 489 959 Q 491 958 490 961 L 493 961 Q 494 963 496 960 L 496 962 L 498 961 L 497 959 L 498 959 Q 497 961 502 960 L 504 960 L 504 962 L 506 961 L 508 962 Q 509 960 510 963 L 509 963 L 510 965 L 512 964 L 511 963 L 513 963 L 513 962 L 515 962 L 517 961 L 520 962 Q 524 963 525 960 L 525 962 L 528 962 Q 533 963 534 960 L 537 962 Q 539 961 537 960 L 538 958 L 539 963 L 541 964 L 540 962 L 545 963 L 545 960 L 548 959 L 547 961 L 549 961 L 551 961 L 553 957 L 560 961 L 564 959 L 566 960 L 567 957 L 570 959 L 575 956 L 575 958 L 578 956 L 579 957 L 578 955 L 584 957 L 584 956 L 581 955 Q 582 952 584 954 Q 586 955 585 953 L 587 953 L 588 951 L 588 953 L 591 953 L 593 952 L 592 951 L 592 950 L 597 951 L 596 950 L 597 948 L 597 950 L 598 950 Q 597 946 603 948 Q 601 946 605 944 L 607 945 L 608 941 L 608 939 L 615 936 L 616 932 L 619 932 Q 618 929 617 931 L 618 927 L 620 928 L 623 928 L 621 927 L 622 924 L 622 922 L 624 922 L 625 920 Q 624 917 628 918 L 628 917 L 627 917 L 626 915 L 627 913 L 626 910 L 628 911 L 629 911 L 626 909 L 628 908 L 627 907 L 624 903 L 625 899 L 623 899 L 624 897 L 621 895 L 622 893 Q 621 890 620 892 L 616 889 L 617 888 L 613 885 L 614 883 L 612 882 L 612 884 L 611 883 L 610 883 L 608 874 L 608 872 L 607 862 L 606 870 L 605 810 L 604 807 Q 602 796 605 791 L 605 787 L 604 785 L 605 783 L 604 781 L 605 776 L 604 772 L 604 770 L 604 662 Q 607 660 605 654 L 609 645 L 637 619 L 652 600 L 657 587 L 658 574 L 659 573 L 659 534 L 658 533 L 659 531 L 658 528 L 658 518 L 664 518 L 666 518 Q 667 520 672 519 L 674 519 L 679 534 Q 685 542 697 545 L 710 545 L 711 544 L 713 545 L 723 539 Q 736 529 735 505 L 736 502 Q 737 497 735 496 L 736 493 L 734 476 L 727 463 Q 721 454 709 452 L 700 452 L 688 457 Q 675 464 674 483 L 673 484 L 659 484 Q 656 483 658 482 L 657 480 L 657 397 L 658 396 L 673 396 L 680 413 Q 683 418 691 420 Q 692 423 694 421 Q 697 424 705 423 L 707 423 Q 718 421 725 414 L 732 403 L 735 387 L 734 358 L 726 342 Q 720 335 711 332 Q 694 330 687 336 Q 679 340 676 350 Q 672 351 675 353 L 673 361 L 657 361 L 657 330 L 658 327 L 658 272 L 662 271 L 666 271 L 668 272 L 672 271 L 674 271 L 674 276 L 674 278 L 683 290 Q 685 289 684 292 L 692 296 L 701 298 L 712 297 L 722 292 L 731 281 L 735 267 L 735 239 Q 733 237 734 232 L 728 219 L 721 211 L 707 206 Q 694 206 687 211 L 678 221 L 675 227 L 673 236 L 673 237 L 661 237 L 662 211 L 663 210 L 663 190 L 664 189 L 663 170 L 656 156 Q 648 146 637 139 L 619 130 L 592 120 L 588 120 L 584 118 L 562 113 L 542 111 L 541 110 L 531 110 L 530 109 L 494 109 Z M 397 895 L 395 897 L 397 897 L 397 895 Z M 420 949 Q 418 952 421 951 L 420 949 Z M 599 950 L 597 952 L 599 952 L 599 950 Z M 440 955 L 440 956 L 443 956 L 440 955 Z M 588 956 L 586 958 L 588 958 L 588 956 Z M 472 958 L 470 960 L 471 962 L 472 962 L 472 958 Z M 479 959 Q 477 962 480 961 L 479 959 Z M 578 959 L 576 961 L 578 961 L 578 959 Z M 489 960 L 487 962 L 490 962 L 489 960 Z M 503 962 L 501 964 L 504 964 L 503 962 Z M 524 962 L 525 964 Q 526 961 524 962 Z M 554 962 L 551 963 L 552 965 L 554 964 L 554 962 Z M 567 962 Q 565 965 568 964 L 567 962 Z M 521 963 L 521 966 L 522 966 Q 523 962 521 963 Z M 527 963 L 527 964 L 529 964 L 527 963 Z M 548 965 Q 546 968 549 967 L 548 965 Z " /><path fill="rgb(0,0,0)" stroke="rgb(0,0,0)" stroke-width="1" opacity="0" d="M 504.5 149 L 508.5 149 L 519.5 149 L 528.5 151 Q 529.7 148.7 534.5 150 L 535.5 151 L 544.5 151 L 548.5 153 L 551.5 152 L 567.5 155 L 592.5 162 L 614.5 172 L 624 180.5 L 625 189.5 L 623 199.5 L 624 202.5 L 623 203.5 L 623 218.5 L 621 229.5 L 622 232.5 Q 623.5 238 621 239.5 L 621 260.5 L 620 261.5 L 620 278.5 L 619 279.5 L 620 282.5 Q 621.8 288.8 619 290.5 L 619 292.5 L 619 316.5 L 618 317.5 L 619 320.5 L 619 334.5 L 617 343.5 L 618 344.5 L 618 356.5 L 618 366.5 L 618 392.5 L 617 393.5 L 618 394.5 L 618 430.5 L 618 434.5 L 618 470.5 L 619 472.5 L 619 474.5 L 619 494.5 L 618 495.5 L 619 500.5 L 619 516.5 L 618 517.5 L 619 524.5 L 619 540.5 L 618 541.5 L 620 547.5 L 619 550.5 L 620 551.5 L 620 567.5 Q 617.8 568.8 619 573.5 L 617 575.5 Q 619.5 577 616 578.5 L 611.5 585 Q 609.3 584.3 610 586.5 L 592.5 603 L 591 603 L 591 605 Q 588.3 603.9 589 606.5 L 586 608 L 584.5 611 Q 582.3 610.3 583 612.5 L 577.5 619 Q 574.9 618.2 576 621.5 L 568 635.5 L 566 646.5 L 566 670.5 L 565 671.5 L 566 672.5 L 566 848.5 L 566 850.5 L 564.5 854 L 565 852.5 L 562.5 849 L 561.5 851 L 560 850.5 L 561 852.5 L 560 855 L 556 853.5 L 555.5 852 L 554 855.5 L 556.5 857 L 559.5 856 L 559.5 857 L 555.5 858 L 552.5 854 L 551.5 856 L 546.5 853 L 546.5 855 L 544 853.5 L 542.5 850 L 537 853.5 L 539 854.5 L 537 855.5 L 535.5 853 L 534 853.5 L 537 851.5 L 535.5 850 L 532.5 853 L 530.5 853 L 527.5 855 L 525.5 852 L 531 851.5 L 528.5 850 L 525.5 851 L 522.5 853 L 522.5 851 L 520 851.5 L 521 854 L 519 854.5 L 519.5 856 L 517.5 855 L 515.5 856 L 511.5 854 L 510.5 855 Q 508.3 855.8 509 853.5 L 512.5 852 L 514 851.5 L 510.5 850 L 507.5 853 L 505.5 852 L 505 854 L 507 854.5 L 505.5 855 L 502 853.5 L 502.5 852 L 503.5 854 L 505 851.5 L 502.5 850 L 497.5 854 L 496 853.5 Q 496.8 856.1 493.5 855 L 489.5 853 L 489.5 854 L 491 854.5 Q 489.8 857.3 488.5 855 Q 483.9 855.6 482.5 853 L 483 854.5 L 482.5 856 L 476.5 854 L 475.5 856 L 472 855.5 L 470.5 858 L 471 856.5 L 470.5 855 L 465.5 856 L 463 857.5 L 463.5 859 L 459 860 L 457.5 856 L 456 859.5 L 455.5 868 L 455 643.5 L 452 631.5 L 445 618.5 L 422.5 595 L 406 579.5 L 402 569.5 L 402 515.5 L 403 512.5 L 402 510.5 L 403 509.5 L 404 373.5 L 403 372.5 L 402 280.5 L 401 279.5 L 401 250.5 L 400 249.5 L 400 247.5 L 399 207.5 L 398 206.5 L 398 189.5 L 397 184.5 Q 398.4 178.4 403.5 176 L 430.5 163 L 432 163.5 Q 431.2 160.9 434.5 162 L 436.5 161 L 438 161.5 Q 437.2 158.9 440.5 160 L 467.5 153 L 473.5 153 L 480.5 151 L 489.5 151 L 490.5 150 L 503.5 150 L 504.5 149 Z M 454 214 L 451 215 L 443 225 Q 444 227 442 226 L 442 228 L 430 239 Q 422 243 420 252 L 422 257 L 426 261 L 425 262 L 432 267 Q 431 269 435 268 L 447 286 L 453 290 L 457 290 L 459 291 L 463 289 L 473 274 Q 472 271 475 272 L 485 262 L 486 263 L 491 256 Q 492 249 489 247 Q 490 244 487 245 L 487 243 L 483 240 L 480 238 Q 469 230 464 218 Q 461 213 454 214 Z M 565 214 L 559 217 L 553 228 Q 554 230 551 229 L 545 237 L 542 239 L 533 250 L 534 258 L 540 263 Q 539 265 542 264 L 542 266 L 546 268 Q 548 267 547 271 Q 549 269 551 273 Q 550 275 553 274 L 559 286 L 565 290 Q 569 289 571 291 L 575 289 L 583 276 L 597 263 L 603 256 L 602 247 L 589 235 Q 580 228 576 218 Q 573 213 565 214 Z M 452 342 L 450 343 L 441 357 Q 434 366 424 371 L 421 376 L 421 383 L 427 391 L 432 395 Q 431 398 435 396 L 435 399 L 437 398 L 436 400 L 439 400 L 440 403 Q 439 405 442 404 L 448 415 L 454 419 L 457 418 L 459 419 L 463 417 L 466 414 L 472 403 L 485 390 L 486 391 L 492 381 L 491 376 Q 488 375 488 371 Q 485 372 483 367 L 480 365 Q 469 357 464 345 Q 461 340 452 342 Z M 564 342 L 562 343 L 554 354 L 554 356 L 551 357 L 545 365 Q 542 364 543 367 L 538 370 L 533 378 L 533 383 L 538 390 L 544 393 L 545 396 L 548 397 Q 553 399 554 406 L 557 409 L 556 410 L 558 410 L 559 414 L 567 418 L 570 419 L 575 417 L 584 403 L 597 391 Q 602 388 604 382 Q 605 376 602 374 L 592 365 Q 581 357 576 344 L 573 342 L 564 342 Z M 454 469 L 448 471 L 444 480 L 441 481 L 439 487 L 434 490 L 430 495 Q 427 494 428 497 L 426 498 L 421 505 Q 419 512 423 514 Q 422 516 425 515 L 427 519 L 430 521 L 434 526 L 437 527 Q 436 529 439 528 L 438 530 L 440 530 L 447 542 L 451 545 L 455 546 L 464 544 L 473 529 L 485 518 L 491 511 Q 492 503 489 501 L 481 494 Q 471 486 465 474 L 459 469 L 454 469 Z M 566 469 L 562 471 L 553 484 Q 554 486 551 485 L 548 490 Q 545 489 546 492 L 536 499 L 533 506 Q 533 511 536 514 L 536 516 L 539 516 Q 538 519 541 518 L 544 523 L 551 527 L 555 534 Q 554 537 557 536 L 558 540 L 564 544 L 568 546 L 576 544 L 585 529 L 595 520 L 604 510 Q 605 504 602 502 L 590 491 Q 582 484 578 475 Q 575 468 566 469 Z M 564 844 L 563 849 L 565 848 L 564 844 Z M 532 845 L 530 847 L 533 847 L 532 845 Z M 496 850 L 495 852 Q 499 853 498 851 L 496 850 Z M 486 851 L 485 854 L 486 854 L 486 851 Z M 488 851 L 487 854 L 488 854 L 488 851 Z M 468 852 L 467 855 L 468 855 L 468 852 Z M 476 852 L 474 854 L 476 854 L 476 852 Z M 517 852 L 518 854 Q 519 851 517 852 Z M 516 853 Q 514 856 517 855 L 516 853 Z " /><path fill="rgb(0,0,0)" stroke="rgb(0,0,0)" stroke-width="1" opacity="0" d="M 542.5 852 L 541.5 854 L 542.5 852 Z " /><path fill="rgb(0,0,0)" stroke="rgb(0,0,0)" stroke-width="1" opacity="0" d="M 500.5 853 L 499.5 855 L 500.5 853 Z " /><path fill="rgb(0,0,0)" stroke="rgb(0,0,0)" stroke-width="1" opacity="0" d="M 477.5 856 L 478.5 858 L 477.5 856 Z " /><path fill="rgb(0,0,0)" stroke="rgb(0,0,0)" stroke-width="1" opacity="0" d="M 565.5 860 L 566 862.5 L 565 862.5 L 565.5 860 Z " /><path fill="rgb(0,0,0)" stroke="rgb(0,0,0)" stroke-width="1" opacity="0" d="M 477.5 955 L 478.5 957 L 477.5 955 Z " /><path fill="rgb(0,0,0)" stroke="rgb(0,0,0)" stroke-width="1" opacity="0" d="M 563.5 956 L 562.5 958 L 563.5 956 Z " /><path fill="rgb(0,0,0)" stroke="rgb(0,0,0)" stroke-width="1" opacity="0" d="M 556.5 957 L 557.5 959 L 556.5 957 Z " /><path fill="rgb(56,138,232)" stroke="rgb(56,138,232)" stroke-width="1" opacity="0.9803921568627451" d="M 498.5 109 L 537.5 110 L 538.5 111 L 546.5 111 L 547.5 112 L 565.5 114 L 578.5 118 L 582.5 118 L 610.5 127 L 624.5 133 Q 641.1 140.4 653 152.5 Q 660.3 159.7 663 171.5 L 663 201.5 L 662 202.5 L 661 237 L 674 237 L 674 231.5 Q 676.9 219.9 684.5 213 L 696.5 207 L 710.5 207 Q 720.9 210.1 727 217.5 L 733 229.5 Q 735.4 236.6 734 247.5 L 735 248.5 L 734 249.5 L 734 270.5 L 732 277.5 Q 728 286.5 720.5 292 L 709.5 297 L 695.5 297 Q 685.6 293.9 680 286.5 Q 675 280.3 674 271 L 658 271 L 658 305.5 L 657 306.5 L 657 354.5 L 656 361 L 673.5 361 Q 674.6 360.9 674 355.5 Q 677 343.5 685.5 337 L 698.5 332 L 708.5 332 Q 721.1 334.4 727 343.5 Q 732.1 349.9 734 359.5 L 734 392.5 L 732 401.5 L 728 409.5 L 720.5 417 L 709.5 422 L 696.5 422 Q 684.6 419.4 679 410.5 Q 674.4 404.9 674 396 L 656 396 L 656 416.5 L 657 417.5 L 657 485 L 673.5 485 Q 674.5 485 674 480.5 Q 676.6 466.6 685.5 459 L 697.5 453 L 711.5 453 Q 723.1 456.4 729 465.5 Q 733.5 472 735 481.5 L 735 513.5 Q 732.7 514.7 734 519.5 L 729 531.5 L 720.5 540 Q 713.4 545.9 699.5 545 Q 685.2 542.8 679 532.5 L 675 523.5 L 675 518 L 658.5 518 L 658 518.5 L 658 578.5 L 656 588.5 L 651 600.5 Q 641.9 615.4 628.5 626 L 610 642.5 L 604 656.5 L 604 904.5 L 598.5 912 L 594.5 914 Q 589 912.5 587.5 915 L 585.5 915 L 580.5 914 L 579 914.5 L 578.5 913 L 576.5 914 L 573.5 913 L 567 908.5 L 566 906.5 L 566 648.5 L 570 632.5 L 575 622.5 L 596.5 599 L 612 585.5 Q 617.8 579.8 620 570.5 L 620 515.5 L 619 514.5 L 619 430.5 L 618 429.5 L 618 427.5 L 619 304.5 L 620 303.5 L 621 247.5 L 622 246.5 L 622 225.5 L 623 224.5 L 625 181.5 L 618.5 174 L 593.5 162 L 569.5 155 L 547.5 151 L 540.5 151 L 539.5 150 L 499.5 149 L 498.5 150 L 485.5 150 L 484.5 151 L 471.5 152 L 440.5 159 Q 416.6 166.1 399 179.5 Q 395.2 184.2 397 194.5 L 398 195.5 L 400 258.5 L 401 259.5 L 402 335.5 L 403 336.5 L 403 468.5 L 402 471.5 Q 404.3 472.8 403 477.5 L 402 479.5 L 402 481.5 L 402 571.5 Q 407.1 585.4 418.5 593 L 436 608.5 L 448 623.5 L 454 639.5 L 454 648.5 L 455 649.5 L 455 681.5 L 454 683.5 L 454 687.5 L 454 885.5 L 455 886.5 L 455 904.5 L 454 908.5 L 450.5 912 L 445.5 914 L 444.5 913 L 440.5 915 L 433.5 915 L 425.5 913 L 419 908.5 L 417 898.5 L 417 871.5 L 418 870.5 L 418 654.5 L 414 644.5 L 410 639 Q 392.7 626.5 378 610.5 Q 367.3 598.7 364 579.5 L 364 518 L 349.5 518 L 349 521.5 L 346 529.5 L 340 538 L 328.5 544 L 315.5 545 Q 302.6 542.4 296 533.5 L 292 526.5 L 289 515.5 L 289 480.5 Q 292.2 464.7 303.5 457 Q 310.5 451 325.5 453 Q 338.1 455.9 344 465.5 Q 349.7 472.5 349 485 L 364.5 485 L 365 484.5 L 365 396 L 349.5 396 L 348 397.5 Q 347 409.5 339.5 415 Q 331.4 423.9 312.5 422 Q 300.9 418.6 295 409.5 Q 290.5 403.5 289 394.5 L 289 357.5 Q 291.9 343.9 301.5 337 L 313.5 332 L 323.5 332 Q 337 334.5 343 344.5 L 347 351.5 L 349 361 L 365 361 L 365 321.5 L 364 318.5 L 364 271.5 L 363.5 271 L 349 271 Q 347.4 283.2 339.5 290 L 325.5 297 L 312.5 297 Q 302.4 294.6 297 287.5 L 291 277.5 L 289 269.5 L 289 233.5 Q 292 219.5 301.5 212 L 312.5 207 L 325.5 207 Q 337.1 209.9 343 218.5 Q 348.9 225.5 349 237 L 362 237 L 362 232.5 L 361 231.5 L 361 218.5 L 360 217.5 L 359 175.5 Q 362.4 155.9 376.5 147 Q 397.8 131.8 425.5 123 L 450.5 116 L 470.5 112 L 484.5 111 L 485.5 110 L 497.5 110 L 498.5 109 Z " /><path fill="rgb(56,138,232)" stroke="rgb(56,138,232)" stroke-width="1" opacity="0.9803921568627451" d="M 452.5 215 Q 461.5 213.5 464 218.5 Q 469.1 231.4 479.5 239 L 489 246.5 L 491 253.5 L 483.5 263 L 472 273.5 L 462.5 288 Q 459.8 290.8 453.5 290 L 448 286.5 Q 443.5 275.5 435.5 268 L 423 257.5 L 421 250.5 L 424 244 Q 434 238.9 441 229.5 L 448.5 217 L 452.5 215 Z " /><path fill="rgb(56,138,232)" stroke="rgb(56,138,232)" stroke-width="1" opacity="0.9803921568627451" d="M 563.5 215 Q 573.3 213.3 576 218.5 L 584 232 Q 586.7 230.9 586 233.5 L 602 247.5 L 603 254.5 L 595.5 263 L 584 273.5 L 573.5 289 L 565.5 290 L 559 284.5 Q 554.4 273.1 545.5 266 L 542.5 264 L 535 256.5 L 534 248.5 L 541.5 240 L 553 229.5 L 561.5 216 L 563.5 215 Z " /><path fill="rgb(56,138,232)" stroke="rgb(56,138,232)" stroke-width="1" opacity="0.9803921568627451" d="M 452.5 342 Q 461.2 340.8 464 345.5 Q 469.1 358.4 479.5 366 L 489 373.5 Q 491.8 376.2 491 382.5 L 483.5 391 L 472 401.5 L 466 412.5 L 462.5 416 Q 460.2 418.7 454.5 418 L 447 412.5 Q 442.4 401.1 433.5 394 L 422 383.5 L 421 377.5 L 424 372 L 440 358.5 L 450.5 343 L 452.5 342 Z " /><path fill="rgb(56,138,232)" stroke="rgb(56,138,232)" stroke-width="1" opacity="0.9803921568627451" d="M 564.5 342 Q 573.2 340.8 576 345.5 Q 581.4 358.1 591.5 366 L 602 374.5 L 603 383.5 L 584 401.5 Q 580.7 411.2 573.5 417 L 566.5 418 L 560 413.5 Q 554.8 401.7 545.5 394 Q 543.3 394.8 544 392.5 L 534 383.5 Q 533 375.3 536 372 L 537.5 372 L 553 357.5 L 559 346.5 L 562.5 343 L 564.5 342 Z " /><path fill="rgb(56,138,232)" stroke="rgb(56,138,232)" stroke-width="1" opacity="0.9803921568627451" d="M 452.5 470 Q 462.6 468.4 465 474.5 Q 469.5 486 478.5 493 L 489 501.5 Q 491.7 503.8 491 509.5 L 482.5 519 L 480 520.5 Q 480.8 522.8 478.5 522 L 461.5 544 L 452.5 545 L 447 540.5 Q 440.9 526.6 429.5 518 L 422 511.5 L 421 506.5 Q 422.5 500 427.5 497 L 439 487.5 L 450.5 471 L 452.5 470 Z " /><path fill="rgb(56,138,232)" stroke="rgb(56,138,232)" stroke-width="1" opacity="0.9803921568627451" d="M 564.5 470 L 572.5 470 L 578 475.5 Q 582.8 488.2 593.5 495 L 603 503.5 Q 604.5 511.5 600.5 514 L 588 524.5 L 576 543 Q 573.1 545.9 565.5 545 L 559 539.5 Q 554.8 529.8 547.5 523 L 536 514 L 534 510.5 L 534 504.5 L 538.5 498 L 544 495 Q 542.9 492.3 545.5 493 L 553 485.5 L 559 474.5 L 562.5 471 L 564.5 470 Z " /></svg>