<svg xmlns="http://www.w3.org/2000/svg" viewBox="0 0 1000 1000"><path fill="#b1bec6" d="m248.6,875.54c-2,5.29-5.38,14.66-9.17,27.15-85.67-14.96-139.96-37.19-139.96-62.04,0-15.94,22.38-30.81,61.08-43.38,7.6,10.72,17.94,17.97,29.21,22.83v33c0,12.4,10.07,22.45,22.47,22.45h27.25c.26-.02.53-.04.78-.09l.23-.05.02.14h8.08Z" opacity=".25"/><path fill="#b1bec6" d="m898.97,840.66c0,33.7-100.01,62.64-242.75,75.09-9.53-25.25-18.11-45.07-18.11-45.07v-40.63h-.39s2.35-27.21,4.75-65.61c11.23.88,22.21,1.86,32.92,2.93,9.76,3.92,19.5,5.03,28.82,3.21,116.65,14.26,194.75,40.32,194.75,70.08Z" opacity=".25"/><path fill="#b1bec6" d="m240.83,904.96l-1.74-.3c-52.89-9.24-141.61-29.83-141.61-64.01,0-16.59,21.02-31.83,62.46-45.28l1.4-.45.85,1.2c6.73,9.49,16.27,16.94,28.37,22.15l1.21.52v34.31c0,11.28,9.18,20.45,20.47,20.45h27.17c.16-.01.32-.02.47-.05l2.31-.51.08.56h9.23l-1.02,2.71c-2.15,5.69-5.48,14.99-9.13,27.02l-.51,1.69Zm-81.04-105.34c-38.16,12.57-58.32,26.74-58.32,41.03,0,22.34,51.01,44.64,136.56,59.76,2.95-9.6,5.67-17.39,7.69-22.87h-33.49c-13.49,0-24.47-10.97-24.47-24.45v-31.69c-11.71-5.25-21.11-12.57-27.98-21.78Z"/><path fill="#b1bec6" d="m654.89,917.87l-.54-1.42c-9.4-24.91-17.99-44.79-18.07-44.98l-.16-.38v-39.05h-.57l.19-2.17c.02-.27,2.38-27.63,4.75-65.56l.13-2.03,2.03.16c11,.86,22.09,1.85,32.96,2.93l.28.03.26.11c9.46,3.8,18.77,4.85,27.69,3.1l.31-.06.32.04c58.42,7.14,107.36,17.28,141.54,29.33,36.47,12.85,54.96,27.23,54.96,42.74,0,17.27-23.95,33.67-69.27,47.43-43.45,13.19-104.07,23.44-175.31,29.65l-1.51.13Zm-14.77-47.61c1.21,2.82,8.93,20.91,17.44,43.36,143.27-12.64,239.41-41.92,239.41-72.96,0-13.44-18.08-26.92-52.29-38.97-33.85-11.93-82.39-21.99-140.38-29.09-9.51,1.79-19.39.7-29.37-3.27-10.09-1-20.36-1.92-30.58-2.74-1.95,30.87-3.86,54.41-4.45,61.45h.21v42.22Z"/><path fill="#b1bec6" d="m752.36,723.13c-25.06,57.79-70.27,62.22-108.68,21.32,4.07-72.12,7.18-169.73-2.57-209.5,9.09,4.25,18.67,6.73,28.43,7.14l5.71,29.55c-9.6,2.55-16.65,11.29-16.65,21.69v77.11c0,12.4,10.05,22.45,22.46,22.45h54.4c12.4,0,22.46-10.05,22.46-22.45v-22.89c4.73,26.27,4.39,52.59-5.57,75.57Z" opacity=".5"/><path fill="#b1bec6" d="m695.45,773.42c-17.7,0-36.3-9.58-53.23-27.61l-.59-.63.05-.86c4.16-73.65,7.1-169.68-2.51-208.91l-.99-4.06,3.78,1.77c9.03,4.22,18.34,6.56,27.67,6.96l1.58.07,6.36,32.94-1.8.48c-8.93,2.38-15.17,10.5-15.17,19.76v77.11c0,11.27,9.18,20.45,20.46,20.45h54.4c11.28,0,20.46-9.17,20.46-20.45v-22.89l3.97-.35c5.36,29.8,3.44,55.61-5.7,76.72h0c-12.28,28.3-29.75,45.18-50.54,48.79-2.71.47-5.45.71-8.21.71Zm-49.73-29.73c18.46,19.4,38.76,28.3,57.25,25.08,19.39-3.38,35.84-19.44,47.55-46.44,5.66-13.05,8.44-28.02,8.34-44.73-3.07,10-12.39,17.29-23.39,17.29h-54.4c-13.49,0-24.46-10.97-24.46-24.45v-77.11c0-10.44,6.63-19.67,16.35-23.08l-5.07-26.26c-8.07-.52-16.1-2.41-23.95-5.63,8.64,41.67,5.81,133.84,1.79,205.33Zm106.63-20.57h0,0Z"/><path fill="#b1bec6" d="m732.42,570.89h-25.25l-6.74-34.77c3.94-1.79,7.68-3.92,11.24-6.39,6.1,11.26,13.52,25.37,20.75,41.16Z" opacity=".5"/><path fill="#b1bec6" d="m735.54,572.89h-30.02l-7.36-37.94,1.44-.65c3.78-1.71,7.45-3.8,10.93-6.21l1.83-1.27,1.06,1.96c5.29,9.76,13.2,24.66,20.81,41.28l1.3,2.83Zm-26.72-4h20.48c-6.59-14.17-13.12-26.61-18.34-36.27-2.67,1.73-5.44,3.29-8.27,4.65l6.13,31.62Z"/><path fill="#b1bec6" d="m294.52,227.23c6.02-42.08,19.89-114.2,45.01-122.95,35.7-12.44,43.83,7.03,60.06.54,16.23-6.48,51.48-22.96,82.31,8.95,18.33,18.97,30.49,52.94,37.34,77.42-21.9,10.26-63.76,26.81-117.19,33.37-49.28,6.06-86.34,4.65-107.53,2.68Z" opacity=".75"/><path fill="#b1bec6" d="m547.05,314.9c-42.51,7.62-94.82,14.6-155.03,20.96-47.57,5.03-86.52,8.11-117.98,9.42-86.97,3.62-116.78-6.33-113.6-26.2,4.33-27.05,130.4-61.68,130.4-61.68,0,0,33.51,12.22,114.35,3.32,85.33-9.37,120.94-40.58,120.94-40.58,0,0,131.54,11.83,142.91,42.14,7.55,20.11-38.08,37.6-121.98,52.62Z" opacity=".75"/><path fill="#b1bec6" d="m526.13,220.14s-35.62,31.22-120.94,40.58c-80.84,8.9-114.35-3.32-114.35-3.32,0,0,1.14-12.41,3.69-30.18,21.19,1.97,58.25,3.39,107.53-2.68,53.43-6.56,95.29-23.11,117.19-33.37,4.68,16.7,6.89,28.96,6.89,28.96Z" opacity=".25"/><path fill="#b1bec6" d="m333.44,230.93c-15.84,0-28.96-.77-39.11-1.71l-2.09-.19.3-2.08c7.45-52.05,21.53-115.91,46.33-124.55,21.64-7.54,33.44-3.7,42.92-.62,6.17,2.01,11.04,3.59,17.05,1.19.76-.3,1.55-.62,2.39-.96,16.8-6.82,51.77-21.02,82.11,10.38,18.53,19.18,30.8,53.15,37.83,78.27l.46,1.63-1.53.72c-20.61,9.66-63.31,26.85-117.79,33.54-26.62,3.27-49.72,4.39-68.85,4.39Zm-36.64-5.5c22.37,1.94,58.19,2.9,105-2.86,52.61-6.46,94.11-22.81,115.04-32.48-6.97-24.49-18.84-56.76-36.39-74.93-28.46-29.45-60.51-16.44-77.73-9.45-.84.34-1.64.67-2.4.97-7.35,2.94-13.11,1.07-19.77-1.1-8.91-2.9-20-6.51-40.37.59-17.43,6.07-33.21,49.49-43.38,119.26Z"/><path fill="#b1bec6" d="m241.58,348.02c-44.52,0-69.97-5.02-79.23-15.43-3.43-3.85-4.73-8.5-3.88-13.81,1.92-11.98,24.83-26.29,68.09-42.54,31.78-11.93,63.43-20.67,63.75-20.75l.62-.17.6.22c.33.12,34.18,11.94,113.45,3.21,83.58-9.18,119.49-39.79,119.84-40.1l.64-.56.85.08c.33.03,33.38,3.04,67.4,9.73,46.25,9.1,72.23,20.43,77.21,33.7,1.54,4.12,1.18,8.22-1.08,12.18-9.04,15.88-49.09,29.98-122.43,43.1h0c-41.33,7.41-93.54,14.47-155.18,20.98-47.39,5.01-86.02,8.09-118.11,9.43-11.81.49-22.64.74-32.54.74Zm49.19-88.52c-35.15,9.71-125,38.88-128.36,59.91-.66,4.13.29,7.57,2.92,10.52,10.32,11.6,45.85,15.97,108.62,13.36,32-1.33,70.55-4.41,117.86-9.41,61.54-6.5,113.65-13.55,154.89-20.94h0c71.1-12.72,111.36-26.57,119.66-41.14,1.67-2.93,1.93-5.81.81-8.8-3.06-8.17-18.43-20.2-74.23-31.18-30.83-6.06-60.85-9.09-66.16-9.6-5.41,4.42-41.67,31.75-121.37,40.5-75.44,8.31-109.58-1.55-114.63-3.22Z"/><path fill="#b1bec6" d="m350,266c-40.8,0-58.84-6.34-59.85-6.71l-1.45-.53.14-1.53c.01-.12,1.18-12.67,3.7-30.28l.27-1.88,1.9.18c22.2,2.06,58.79,3.27,107.1-2.67,53.93-6.62,96.19-23.64,116.58-33.19l2.14-1,.64,2.27c4.66,16.6,6.91,29.02,6.93,29.15l.2,1.11-.85.75c-1.47,1.29-37.07,31.74-122.04,41.07-21.83,2.4-40.2,3.28-55.41,3.28Zm-57.01-10.01c7.26,2.11,41.84,10.47,111.99,2.75,76.46-8.4,113.03-34.74,118.97-39.4-.62-3.23-2.6-12.92-6-25.35-21.34,9.8-62.99,26.08-115.65,32.55-47.31,5.82-83.51,4.83-106.06,2.85-1.82,12.96-2.88,22.87-3.25,26.59Z"/><path fill="#b1bec6" d="m533.05,445.92c-8.78,10.63-20.94,18.8-37.56,22.9-62.64,15.44-121.95-22.75-152.95-48.18h0c-14.12-11.58-22.36-20.52-22.36-20.52,0,0-35.31,20.55-48.16-17.98-4.9-14.71-3.72-27.28,2.01-36.86,31.46-1.31,70.41-4.39,117.98-9.42,60.21-6.36,112.53-13.34,155.03-20.96,6.25,28.43,16.3,94.36-14,131.03Z" opacity=".5"/><path fill="#b1bec6" d="m465.93,474.37c-52.27,0-99.12-31.23-124.66-52.18l-.73-.61c-10.8-8.9-18.14-16.26-20.76-18.98-4.32,2.17-17.71,7.94-30.35,3.17-8.83-3.33-15.33-11.07-19.31-22.99-4.88-14.64-4.12-27.96,2.19-38.52l.55-.93,1.08-.04c32-1.33,70.55-4.41,117.86-9.41,61.54-6.5,113.65-13.55,154.89-20.94l1.89-.34.41,1.88c6.02,27.38,16.66,95.12-14.41,132.73h0c-9.67,11.7-22.66,19.63-38.63,23.57-10.13,2.5-20.18,3.61-30.03,3.61Zm-121.39-54.67c25.24,20.57,70.84,50.67,121.39,50.67,9.55,0,19.27-1.07,29.08-3.49,15.11-3.73,27.39-11.21,36.5-22.23h0c29.27-35.43,19.93-99.54,13.99-127.44-41.03,7.29-92.58,14.23-153.28,20.64-46.85,4.95-85.14,8.02-117.01,9.38-5.2,9.38-5.66,21.2-1.3,34.27,3.57,10.72,9.26,17.62,16.9,20.51,13.21,5,28.21-3.54,28.36-3.62l1.39-.8,1.09,1.18c.08.09,8.32,8.99,22.16,20.32l.73.61Z"/><path fill="#b1bec6" d="m317.29,379.96s-.05,0-.07,0c-1.1-.04-1.97-.96-1.93-2.07.25-7.46-1.7-12.98-5.8-16.4-7.69-6.43-20.55-3.76-20.68-3.73-1.08.23-2.14-.45-2.38-1.53-.23-1.08.45-2.14,1.53-2.38.6-.13,14.91-3.1,24.09,4.57,5.09,4.26,7.52,10.85,7.23,19.6-.04,1.08-.92,1.93-2,1.93Z"/><path fill="#b1bec6" d="m302.85,384.13c-.9,0-1.72-.62-1.94-1.53-.11-.46-2.62-11.25,2.33-17.64,2.25-2.9,5.59-4.41,9.94-4.48.01,0,.02,0,.03,0,1.09,0,1.98.87,2,1.97.02,1.1-.86,2.01-1.97,2.03-3.11.05-5.35,1.01-6.84,2.93-3.78,4.86-1.63,14.17-1.61,14.26.25,1.07-.41,2.15-1.48,2.41-.16.04-.31.06-.47.06Z"/><path fill="#b1bec6" d="m548.61,544.5c3.56,4.2,26.41,31.51,25.23,38.63-1.28,7.7-66.78,99.54-75.13,95.68-8.35-3.85-165.68-97.6-156.69-114.3,8.02-14.9,21.67-42.57,24.51-48.37.19-.38-.19-.79-.58-.64-6.24,2.41-36.81,13.17-48.63-2.36-9-11.85-29.8-29.67-34.86-43.86-2.35-6.6-1.3-12.42,5.94-16.5,0,0,26.66-37.25,40.14-30.82,1.62.77,5.08,3.84,9.95,8.63,4.69,4.63,10.7,10.85,17.59,18.16,45.49,48.15,129.98,143.09,136.85,133.75,6.7-9.09,24.45-78.06,35.46-112.64,3.09-9.75,5.66-16.76,7.29-18.94.35-.48.65-.72.92-.72,5.77,0,30.18,10.34,35.95,22.2.63,1.3,1.36,2.91,2.14,4.74,6.34,15.02,16.21,45.76,8.78,52.05-7.56,6.4-30.38,13.33-34.63,14.58-.33.1-.44.48-.23.74Z" opacity=".25"/><path fill="#b1bec6" d="m499.29,680.93c-.47,0-.95-.08-1.43-.3-6.29-2.9-149.55-87.45-157.79-112.08-.64-1.91-.58-3.58.17-4.98,7.12-13.23,18.53-36.25,22.8-44.89-10.58,3.57-36.24,10.24-47.33-4.32-2.95-3.88-7.26-8.49-11.83-13.37-9.29-9.93-19.82-21.19-23.32-31.03-2.87-8.06-.64-14.51,6.45-18.69,3.83-5.3,28.17-37.88,42.37-31.11,1.2.57,3.48,2.11,10.49,9.01,4.47,4.41,10.4,10.53,17.65,18.21,8.5,9,18.38,19.65,28.83,30.91,21.67,23.36,46.23,49.84,66.35,70.04,29.79,29.9,36.98,32.83,38.64,32.83.03,0,.05,0,.08,0,4.28-6.17,13.81-39.31,22.23-68.57,4.67-16.25,9.09-31.6,12.83-43.33,3.58-11.28,5.92-17.3,7.6-19.53.27-.36,1.12-1.52,2.52-1.52,6.28,0,31.64,10.76,37.75,23.32.66,1.37,1.42,3.04,2.18,4.83.19.46,18.95,45.29,8.23,54.36-7,5.93-25.75,12.04-33.11,14.29,8.73,10.43,25.34,31.38,24.16,38.46-1.39,8.36-58.91,88.81-73.75,96.65-.44.23-1.54.81-2.76.81Zm-133.18-167.46c.68,0,1.34.28,1.82.81.69.76.84,1.84.38,2.76-.15.3-15.65,31.92-24.54,48.42-.26.48-.09,1.25.1,1.81,7.16,21.43,143.55,103.96,155.51,109.65,3.2-.4,16.7-14.35,39.08-44.35,18.13-24.3,32.84-46.7,33.39-49.77.62-3.76-9.8-19.33-24.78-37.01l-.03-.04c-.52-.64-.69-1.49-.45-2.27.24-.78.85-1.39,1.64-1.64,2.71-.79,26.47-7.87,33.93-14.19,5.14-4.35-.67-29.24-9.33-49.75-.74-1.73-1.46-3.34-2.09-4.65-5.11-10.5-27.25-20.39-33.56-21.04-.97,1.39-2.93,5.71-6.9,18.23-3.72,11.68-8.13,27-12.79,43.22-9.42,32.76-18.32,63.7-22.97,70-.45.61-1.3,1.36-2.78,1.45-.07,0-.14,0-.21,0-10.69,0-51.59-43.2-108.11-104.13-10.45-11.26-20.31-21.9-28.81-30.89-7.21-7.65-13.11-13.74-17.54-18.11-6.14-6.04-8.5-7.82-9.4-8.24-8.72-4.15-27.73,16.31-37.66,30.18l-.26.36-.39.22c-5.71,3.22-7.31,7.69-5.03,14.09,3.23,9.06,13.45,19.99,22.48,29.64,4.64,4.96,9.02,9.64,12.09,13.69,10.99,14.44,40.51,3.96,46.32,1.71.29-.11.59-.17.89-.17Zm-1.39,1.79s0,.01-.01.02c0-.01,0-.02.01-.02Z"/><path fill="#b1bec6" d="m535.68,450.91c-7.43,9.91-34.17,119.92-42.76,131.58-7.91,10.74-118.78-116.79-154.44-151.91,1.37-3.38,2.75-6.77,4.06-9.93,31,25.43,90.31,63.62,152.95,48.18,16.63-4.1,28.79-12.27,37.56-22.9l2.63,4.99Z" opacity=".75"/><path fill="#b1bec6" d="m491.54,585.13c-10.69,0-51.63-43.24-108.19-104.22-19.23-20.73-35.84-38.63-46.27-48.91l-.95-.94.5-1.24c1.37-3.39,2.76-6.77,4.07-9.95l1.03-2.5,2.09,1.71c29.78,24.43,89.01,63.11,151.2,47.78,15.11-3.73,27.39-11.21,36.5-22.23l1.91-2.31,4.62,8.77-.76,1.01c-3.37,4.5-11.7,33.46-19.75,61.47-9.43,32.8-18.34,63.78-22.99,70.1-.45.61-1.3,1.36-2.78,1.45-.07,0-.14,0-.21,0Zm-150.7-155.04c10.54,10.47,26.76,27.95,45.45,48.1,21.68,23.38,46.26,49.87,66.4,70.08,30.31,30.42,37.26,32.92,38.75,32.86,4.28-6.18,13.82-39.36,22.25-68.67,9.67-33.62,16-55.17,19.69-61.66l-.72-1.37c-9.44,10.47-21.76,17.64-36.68,21.31-10.13,2.5-20.18,3.61-30.03,3.61-50.87,0-96.61-29.58-122.57-50.48-.83,2.02-1.68,4.11-2.53,6.2Z"/><path fill="#b1bec6" d="m748.63,417.09c-8.77-45.39-38.29-79.96-72.46-89.72-10.54-3.02-21.51-3.67-32.47-1.55-46.45,9-74.79,64.44-63.29,123.82,2.3,11.93,6.05,23.11,10.94,33.28,1.41,2.93,2.9,5.78,4.49,8.55,11.2,19.51,26.79,34.55,44.29,43.01.33.16.65.31.98.47,9.09,4.25,18.68,6.72,28.44,7.14,5.23.22,10.51-.15,15.79-1.18,5.28-1.02,10.32-2.64,15.09-4.8,3.94-1.78,7.68-3.92,11.24-6.38,1.1-.76,2.17-1.55,3.22-2.37,28.05-21.8,42.53-64.89,33.74-110.27Zm-22.97,25.43c0,.19,0,.37,0,.56,0,.07-.01.14-.01.21,0,.14,0,.29-.02.44,0,.22-.02.43-.03.65,0,.18-.01.36-.01.54-.01.31-.03.63-.05.95,0,.05,0,.11-.01.17-.03.45-.06.9-.09,1.36-.04.54-.08,1.09-.14,1.63-.06.74-.15,1.48-.24,2.22-.01.19-.03.37-.06.54-.04.33-.08.66-.12.99-.16,1.23-.35,2.45-.57,3.66-.04.22-.08.45-.13.67-.02.12-.04.23-.06.35-.05.32-.11.63-.18.94-.06.32-.13.64-.2.97-.05.23-.11.47-.16.7-.07.33-.15.67-.22,1-.17.71-.35,1.4-.54,2.09-.06.23-.12.48-.18.71-.27,1.04-.57,2.06-.9,3.07-.06.2-.12.41-.18.61-.05.17-.11.35-.17.52-.35,1.09-.73,2.16-1.14,3.22-.23.61-.46,1.21-.71,1.81-.51,1.25-1.05,2.47-1.62,3.67-.15.32-.31.64-.47.96-.54,1.09-1.08,2.18-1.67,3.23-.02.06-.05.12-.1.18-.24.43-.49.86-.75,1.29-.23.4-.45.79-.7,1.18-.11.19-.24.39-.36.58-.37.59-.74,1.18-1.13,1.75-.19.31-.4.61-.63.92-.2.29-.41.58-.61.86-.1.14-.2.28-.3.41-.31.42-.61.83-.93,1.24-.05.07-.09.13-.15.2-.05.07-.1.13-.17.19-.17.22-.34.45-.51.67-.02.04-.05.07-.09.11-.49.61-1,1.19-1.51,1.77-.14.15-.26.31-.4.46-.06.08-.13.16-.2.24-.08.08-.16.15-.24.23-.17.2-.35.4-.53.6-.18.2-.37.38-.56.57-.68.72-1.39,1.42-2.12,2.08-.32.32-.65.61-.99.91-.05.05-.11.09-.16.14-.43.39-.89.76-1.34,1.14-.33.28-.67.55-1.01.82-.56.45-1.12.88-1.7,1.29-.4.29-.81.56-1.22.83-.45.31-.91.62-1.38.92-.42.27-.86.54-1.32.8-.15.1-.3.19-.46.28h-.01c-.07.05-.14.1-.22.14-.07.04-.15.08-.22.11-.47.26-.93.53-1.41.77-.29.16-.58.31-.88.45-.26.13-.53.26-.8.39s-.54.26-.81.38c-3.37,1.53-6.93,2.68-10.65,3.39-3.73.73-7.46,1-11.16.83-1.84-.08-3.67-.26-5.49-.54-.64-.1-1.27-.21-1.9-.33-.03-.01-.06-.01-.09-.02-.4-.07-.8-.16-1.19-.25-.23-.04-.47-.1-.7-.15-.44-.11-.88-.22-1.32-.33-.66-.17-1.32-.36-1.98-.57-.29-.09-.57-.18-.85-.26-1.35-.44-2.68-.93-4.01-1.47-.31-.13-.62-.25-.92-.39-.26-.11-.52-.22-.78-.35-.09-.04-.18-.08-.27-.13-.28-.12-.56-.24-.83-.38-.57-.26-1.14-.54-1.71-.84-.22-.11-.42-.21-.63-.33-.28-.14-.57-.3-.86-.45-.34-.18-.67-.37-1-.57-.68-.38-1.35-.79-2.02-1.22-.37-.22-.74-.46-1.1-.7-1.23-.79-2.44-1.64-3.62-2.54-.39-.29-.78-.59-1.17-.9-.38-.29-.75-.59-1.12-.9-2.71-2.21-5.3-4.68-7.74-7.36-.33-.36-.65-.73-.98-1.1-.31-.35-.62-.71-.94-1.07,0-.01-.01-.02-.02-.03-.29-.35-.59-.71-.88-1.06-.01-.01-.02-.02-.03-.04-.04-.05-.09-.1-.13-.15-.08-.1-.16-.2-.24-.31-.03-.03-.06-.07-.09-.11-.5-.63-1-1.27-1.49-1.92-.6-.81-1.21-1.64-1.8-2.48-.3-.42-.58-.85-.87-1.27-.29-.43-.57-.86-.85-1.29-.29-.43-.57-.87-.84-1.32-.28-.45-.55-.89-.82-1.35-.53-.89-1.06-1.81-1.57-2.74-.26-.47-.52-.94-.77-1.42-.24-.46-.48-.93-.72-1.4-.36-.72-.72-1.44-1.06-2.18-.39-.8-.76-1.62-1.12-2.44-.29-.67-.58-1.35-.86-2.04-.31-.76-.62-1.53-.91-2.31-.29-.77-.57-1.54-.85-2.32,0-.01-.01-.02-.01-.04-.28-.79-.54-1.58-.8-2.38-.26-.8-.51-1.61-.74-2.43-.24-.81-.47-1.63-.69-2.46-.13-.47-.25-.95-.37-1.44-.27-1.07-.52-2.15-.75-3.24-.14-.63-.27-1.27-.39-1.91-8.11-41.91,11.88-81.02,44.67-87.37,32.77-6.35,65.92,22.48,74.04,64.4,1.23,6.34,1.81,12.62,1.8,18.73,0,.63-.01,1.27-.02,1.91Z" opacity=".5"/><path fill="#b1bec6" d="m672.43,544.15c-.99,0-1.98-.02-2.96-.06-9.89-.43-19.72-2.89-29.2-7.33l-1-.48c-17.85-8.63-33.89-24.19-45.16-43.82-1.57-2.73-3.1-5.65-4.56-8.68-5.09-10.58-8.82-21.94-11.1-33.77-11.69-60.37,17.41-116.97,64.87-126.16,11.03-2.13,22.27-1.6,33.4,1.59,36.16,10.33,65.16,46.15,73.87,91.26,8.74,45.11-4.8,89.16-34.48,112.23-1.09.85-2.21,1.67-3.31,2.44-3.71,2.57-7.6,4.77-11.55,6.56-4.96,2.25-10.18,3.91-15.53,4.94-4.35.85-8.81,1.28-13.29,1.28Zm-15.79-217.57c-4.21,0-8.4.4-12.56,1.21-45.3,8.78-72.98,63.27-61.71,121.48,2.21,11.49,5.84,22.53,10.78,32.79,1.42,2.94,2.9,5.78,4.42,8.42,10.87,18.93,26.29,33.92,43.43,42.21l.98.47c8.98,4.2,18.29,6.54,27.65,6.94,5.16.22,10.31-.17,15.32-1.14,5.05-.98,9.97-2.54,14.65-4.66,3.74-1.69,7.41-3.78,10.93-6.2,1.04-.72,2.09-1.49,3.13-2.3,28.51-22.16,41.46-64.67,33.01-108.31h0c-8.43-43.65-36.32-78.26-71.04-88.18-6.32-1.81-12.67-2.72-18.98-2.72Z"/><path fill="#b1bec6" d="m670.19,512.13c-.74,0-1.48-.02-2.22-.05-1.9-.08-3.82-.27-5.7-.56-.67-.1-1.32-.22-1.97-.34l-.2-.04c-.37-.07-.74-.15-1.11-.24-.17-.03-.35-.07-.53-.11l-1.58-.39c-.71-.18-1.4-.38-2.1-.6l-.21-.06c-.2-.06-.39-.12-.59-.18-1.45-.47-2.8-.97-4.21-1.54l-.26-.11c-.25-.1-.51-.21-.75-.32-.23-.09-.53-.22-.83-.37-.05-.02-.14-.06-.24-.11-.28-.12-.57-.25-.84-.39-.59-.27-1.18-.56-1.77-.87-.23-.11-.43-.22-.64-.34-.16-.08-.31-.16-.47-.25l-.36-.19c-.39-.21-.76-.42-1.12-.64-.59-.33-1.29-.75-2.06-1.25-.34-.2-.74-.46-1.13-.72-1.23-.79-2.5-1.68-3.72-2.61-.39-.29-.8-.6-1.2-.93-.37-.28-.77-.6-1.16-.93-2.73-2.23-5.41-4.77-7.93-7.55-.22-.24-.44-.48-.66-.73l-2.38-2.78s-.02-.02-.03-.03c-.08-.09-.16-.19-.24-.3-.04-.05-.08-.1-.12-.15-.49-.62-1-1.27-1.5-1.93-.62-.84-1.24-1.68-1.84-2.54-.18-.26-.37-.53-.56-.81l-.32-.47c-.31-.46-.59-.9-.88-1.33-.29-.43-.59-.9-.88-1.38-.27-.44-.55-.9-.83-1.37-.54-.9-1.08-1.84-1.6-2.79-.29-.52-.54-.98-.79-1.46-.24-.47-.48-.94-.73-1.41-.39-.79-.75-1.51-1.1-2.26-.38-.78-.76-1.62-1.13-2.47-.3-.69-.6-1.39-.88-2.09-.32-.78-.63-1.56-.93-2.36-.29-.78-.57-1.55-.86-2.34h0s-.12-.36-.12-.36c-.24-.7-.48-1.41-.71-2.12-.27-.82-.53-1.66-.76-2.51-.24-.8-.47-1.64-.7-2.49-.13-.47-.26-.97-.38-1.48-.27-1.07-.53-2.19-.76-3.3-.14-.63-.28-1.29-.4-1.95-8.3-42.91,12.45-83.15,46.26-89.7,16.47-3.19,33.5,1.98,47.96,14.55,14.32,12.45,24.42,30.72,28.43,51.43,1.23,6.33,1.85,12.76,1.84,19.11,0,.64,0,1.29-.02,1.94h0v.53c0,.09-.01.17-.02.26,0,.14,0,.32-.02.51,0,.14-.01.29-.02.43l-.02.64c-.01.37-.03.68-.05.99,0,.08,0,.2-.02.33l-.08,1.29c-.05.62-.09,1.17-.15,1.72-.05.69-.14,1.43-.24,2.18,0,.18-.04.42-.07.65l-.11.94c-.17,1.27-.36,2.53-.59,3.78-.05.28-.09.5-.13.7l-.05.28c-.05.35-.12.71-.2,1.06-.03.19-.09.45-.15.72l-.43,1.92c-.15.63-.3,1.21-.46,1.8l-.16.62c-.04.18-.09.35-.14.52-.26,1.01-.58,2.08-.92,3.14l-.17.57c-.05.19-.12.4-.2.6-.34,1.05-.73,2.17-1.16,3.28-.23.62-.47,1.24-.73,1.86-.47,1.17-1.02,2.4-1.65,3.75-.16.34-.32.67-.49,1-.46.95-1.03,2.08-1.65,3.21-.06.14-.14.27-.22.4-.23.41-.47.83-.72,1.24l-.06.1c-.21.36-.41.72-.64,1.08-.09.16-.2.33-.3.49l-.08.13c-.38.6-.76,1.21-1.17,1.8-.17.28-.41.63-.68.98-.12.18-.29.42-.47.67l-.12.17c-.1.15-.23.33-.36.49l-.07.1c-.28.38-.56.75-.85,1.13-.03.05-.08.12-.15.2-.08.1-.16.2-.25.29l-.36.48c-.08.13-.17.23-.24.3-.46.57-.93,1.11-1.41,1.65l-.25.29c-.07.08-.14.16-.21.24-.07.09-.15.19-.23.28l-.29.28c-.16.19-.33.38-.5.57-.16.17-.32.34-.49.5l-.14.14c-.69.74-1.44,1.47-2.19,2.15-.27.28-.63.59-.99.91l-.18.16c-.44.39-.91.79-1.38,1.18l-.22.18c-.28.23-.55.46-.84.68-.62.5-1.2.94-1.78,1.35-.28.2-.58.4-.88.6l-.37.25c-.47.32-.95.64-1.44.95-.42.27-.87.55-1.34.82-.16.11-.33.21-.5.3-.09.06-.18.12-.28.17-.09.05-.18.1-.27.14l-.31.17c-.37.21-.73.41-1.11.6-.26.14-.59.31-.93.47l-.69.34c-.38.18-.67.32-.95.45-3.56,1.61-7.29,2.8-11.09,3.53-3.1.61-6.26.91-9.41.91Zm-9.05-4.87c.58.11,1.16.21,1.75.3,1.73.27,3.5.44,5.27.52,3.56.16,7.16-.1,10.69-.79,3.5-.67,6.93-1.76,10.21-3.25.26-.12.52-.24.77-.36l.78-.38c.31-.14.55-.27.8-.41.39-.2.7-.37,1.01-.54l1.17-.67s0,0,0,0l.13-.08c.42-.24.83-.49,1.22-.74.47-.3.91-.59,1.34-.89l.39-.26c.26-.18.52-.35.78-.54.56-.4,1.09-.8,1.62-1.23.28-.22.53-.42.77-.63l.22-.18c.42-.35.86-.71,1.27-1.08l.17-.15c.31-.27.61-.54.9-.83.74-.68,1.42-1.34,2.08-2.04l.2-.2c.11-.11.22-.22.33-.34.17-.19.34-.38.5-.56l.32-.32s.03-.03.04-.05l.6-.7c.46-.52.92-1.04,1.35-1.58l.91-1.15c.27-.35.52-.69.78-1.04l.12-.16c.12-.15.19-.25.26-.35l.15-.21c.15-.21.31-.43.46-.65.24-.33.42-.58.58-.84.43-.63.78-1.2,1.14-1.77l.09-.15c.08-.12.15-.23.21-.35l.06-.1c.2-.31.38-.63.56-.95l.08-.15c.27-.45.51-.86.74-1.27l.1-.18c.6-1.08,1.15-2.19,1.62-3.14.16-.32.31-.62.45-.93.61-1.29,1.12-2.46,1.58-3.57.25-.59.47-1.17.69-1.76.41-1.05.78-2.1,1.11-3.12.06-.19.11-.33.16-.47l.19-.63c.33-1.02.62-2.01.88-2.99.05-.18.08-.31.12-.44l.17-.66c.14-.55.29-1.09.42-1.65l.42-1.88c.05-.24.1-.47.14-.7.08-.34.13-.61.17-.88l.09-.48c.04-.16.07-.33.1-.5.23-1.27.42-2.47.57-3.65l.13-1.07c.02-.1.03-.2.03-.3v-.14c.1-.76.19-1.45.24-2.14.06-.56.1-1.06.13-1.56l.1-1.56c.02-.35.04-.63.05-.89l.03-.83c0-.1.01-.2.01-.3l.02-.26c0-.06,0-.12,0-.18,0-.09,0-.17.01-.26v-.54c.02-.63.03-1.26.03-1.88,0-6.1-.58-12.27-1.76-18.35-3.84-19.84-13.48-37.3-27.13-49.17-13.51-11.75-29.34-16.6-44.57-13.64-31.64,6.13-50.97,44.27-43.09,85.03.12.63.24,1.25.38,1.85.23,1.08.47,2.15.74,3.19.12.49.23.95.36,1.4.22.83.45,1.63.68,2.42.23.82.47,1.61.72,2.38.25.79.51,1.56.78,2.33l.12.35c.24.66.48,1.32.72,1.98.29.77.59,1.52.89,2.26.28.68.56,1.34.84,2,.35.79.7,1.58,1.08,2.36.34.75.69,1.43,1.03,2.11.25.5.49.97.73,1.42.23.44.47.88.71,1.32.53.97,1.05,1.87,1.57,2.74.27.46.53.88.8,1.32.27.44.53.86.8,1.26.29.44.56.87.85,1.29l.33.49c.17.25.33.49.51.74.59.84,1.19,1.66,1.78,2.45.47.62.96,1.25,1.45,1.87,0,0,0,0,0,0l.14.18c.06.08.12.16.18.23.04.05.09.1.14.16l.84,1.01,1.31,1.5c.2.23.4.46.61.68,2.4,2.63,4.93,5.04,7.53,7.16.37.31.71.59,1.07.86.41.32.78.61,1.15.89,1.16.89,2.33,1.71,3.51,2.46.36.24.7.46,1.04.66.77.49,1.39.87,1.97,1.19.36.22.65.39.96.55l.39.2c.15.08.3.16.44.23l.09.05c.17.1.33.17.5.26.61.32,1.14.58,1.68.83l.09.04c.23.12.46.22.7.32l.3.14c.3.15.52.24.74.33.26.12.46.2.65.28l.27.11c1.3.53,2.57.99,3.86,1.41.16.04.38.11.61.18l.21.07c.64.2,1.26.38,1.89.54l1.48.37c.12.03.25.06.38.08l.12.02c.35.08.72.17,1.08.23l.21.04Zm31.96-5.29s0,0-.01,0h.01Zm15.4-13.56h0Zm-83.55-4.49h0s0,0,0,0Z"/><path fill="#b1bec6" d="m641.11,534.95c-.33-.15-.65-.31-.98-.47-17.51-8.46-33.09-23.5-44.3-43.01-1.58-2.76-3.08-5.61-4.48-8.55-5.79-2.44-11.44-4.32-16.66-5.79,6.34,15.02,16.2,45.76,8.77,52.06-7.56,6.4-30.39,13.33-34.64,14.57-.33.1-.44.48-.22.74,3.56,4.2,26.41,31.51,25.23,38.63-1.28,7.69-66.77,99.54-75.13,95.67-8.35-3.84-165.69-97.6-156.69-114.3,8.02-14.9,21.66-42.56,24.51-48.36.19-.38-.18-.79-.58-.64-6.24,2.42-36.81,13.17-48.63-2.36-9.01-11.85-29.81-29.67-34.86-43.87-18.7,20.84-43.42,51.22-58.32,80.8,0,0-.02.03-.05.1-.06.1-.15.28-.28.53-4.92,9.86-8.74,19.62-10.87,28.9-7.86,34.25,6.21,113.65,19.3,173.93h34.39c12.42,0,22.47,10.05,22.47,22.45v54.07h135.19v-10.74h120.08v10.74h93.36s3.2-37.02,5.95-85.61c4.08-72.12,7.18-169.73-2.57-209.49Zm-221.96,197.03c0,4.25-3.45,7.69-7.71,7.69h-91.18c-4.27,0-7.71-3.44-7.71-7.69v-8.35c0-4.27,3.44-7.71,7.71-7.71h91.18c4.26,0,7.71,3.44,7.71,7.71v8.35Z" opacity=".5"/><path fill="#b1bec6" d="m639.56,832.05h-97.19v-10.74h-116.08v10.74h-139.19v-56.07c0-11.28-9.18-20.45-20.47-20.45h-36l-.34-1.58c-13.18-60.67-27.22-140.24-19.29-174.8,2.04-8.88,5.75-18.76,11.03-29.34.11-.23.21-.41.28-.55.04-.08.07-.14.09-.18,15.11-29.96,40.19-60.66,58.57-81.14l2.25-2.5,1.13,3.17c3.22,9.06,13.45,19.99,22.47,29.64,4.64,4.96,9.02,9.65,12.1,13.69,10.99,14.44,40.51,3.96,46.31,1.71.97-.37,2.03-.11,2.72.65.69.77.83,1.85.36,2.77-.62,1.27-15.73,32.05-24.53,48.4-.26.48-.09,1.25.1,1.82,7.18,21.47,143.56,103.97,155.51,109.65,3.2-.4,16.7-14.35,39.08-44.34,18.13-24.3,32.84-46.7,33.4-49.77.62-3.75-9.8-19.32-24.78-37.01-.55-.67-.71-1.52-.48-2.3.23-.78.84-1.4,1.63-1.64,2.72-.8,26.47-7.86,33.94-14.19,5.14-4.36-.67-29.25-9.32-49.76l-1.62-3.83,4,1.13c5.9,1.66,11.58,3.63,16.89,5.87l.7.29.33.68c1.37,2.86,2.86,5.69,4.42,8.42,10.88,18.94,26.3,33.93,43.43,42.2.33.17.64.31.96.46l.87.41.23.93c9.74,39.7,6.8,136.16,2.62,210.08-2.72,48.06-5.92,85.29-5.96,85.66l-.16,1.83Zm-93.19-4h89.52c.67-8.05,3.42-41.75,5.79-83.72,4.13-73.08,7.06-168.2-2.29-207.99-.05-.02-.1-.05-.15-.07-17.82-8.61-33.86-24.17-45.14-43.8-1.48-2.6-2.9-5.28-4.22-7.99-3.77-1.56-7.72-2.98-11.81-4.25,4.3,11.14,15.53,43,6.68,50.5-7.02,5.94-25.76,12.05-33.12,14.29,8.7,10.4,25.34,31.39,24.17,38.46-1.39,8.36-58.91,88.81-73.75,96.65-1.66.88-3.04,1.05-4.19.51-6.28-2.89-149.54-87.41-157.79-112.08-.64-1.91-.58-3.58.17-4.98,7.06-13.11,18.52-36.22,22.79-44.89-10.58,3.57-36.24,10.24-47.33-4.32-2.95-3.88-7.27-8.5-11.83-13.38-8.35-8.93-17.7-18.93-22.05-28.01-18.01,20.28-41.57,49.53-55.92,78l-.13.25h0c-.04.06-.1.18-.18.34-5.15,10.33-8.76,19.9-10.73,28.48-7.7,33.55,5.97,111.42,18.96,171.48h32.78c13.49,0,24.47,10.97,24.47,24.45v52.07h131.19v-10.74h124.08v10.74Zm-181.64-312.78s-.01.03-.02.04c.01-.02.02-.04.02-.04Z"/><path fill="#b1bec6" d="m411.43,741.67h-91.18c-5.36,0-9.71-4.35-9.71-9.69v-8.34c0-5.36,4.36-9.71,9.71-9.71h91.18c5.36,0,9.71,4.36,9.71,9.71v8.34c0,5.34-4.36,9.69-9.71,9.69Zm-91.18-23.75c-3.15,0-5.71,2.56-5.71,5.71v8.34c0,3.14,2.56,5.69,5.71,5.69h91.18c3.15,0,5.71-2.55,5.71-5.69v-8.34c0-3.15-2.56-5.71-5.71-5.71h-91.18Z"/><path fill="#b1bec6" d="m424.28,830.05v40.63h-143.68c5.18-4.11,8.49-10.45,8.49-17.58v-23.05h135.19Z" opacity=".75"/><rect width="93.75" height="40.63" x="544.36" y="830.04" fill="#b1bec6" opacity=".75"/><path fill="#b1bec6" d="m426.28,872.67h-151.42l4.5-3.57c4.91-3.9,7.73-9.73,7.73-16.01v-25.05h139.19v44.63Zm-140.78-4h136.78v-36.63h-131.19v21.05c0,5.78-2,11.24-5.6,15.58Z"/><path fill="#b1bec6" d="m640.12,872.68h-97.75v-44.63h97.75v44.63Zm-93.75-4h89.75v-36.63h-89.75v36.63Z"/><rect width="120.08" height="59.72" x="424.28" y="819.31" fill="#b1bec6" opacity=".25"/><path fill="#b1bec6" d="m546.36,881.03h-124.08v-63.72h124.08v63.72Zm-120.08-4h116.08v-55.72h-116.08v55.72Z"/><path fill="#b1bec6" d="m707.17,570.89h-26.11c-2.01,0-3.96.26-5.81.75l-5.71-29.55c5.23.23,10.51-.15,15.8-1.18,5.28-1.02,10.32-2.64,15.09-4.79l6.74,34.77Z" opacity=".75"/><path fill="#b1bec6" d="m673.7,574.12l-6.6-34.14,2.53.11c5.13.22,10.29-.16,15.33-1.15,5.03-.97,9.96-2.54,14.65-4.65l2.3-1.04,7.68,39.64h-28.53c-1.8,0-3.58.23-5.3.69l-2.07.55Zm-1.72-29.97l4.85,25.1c1.39-.24,2.81-.36,4.23-.36h23.68l-5.81-29.96c-4.27,1.75-8.71,3.07-13.22,3.94-4.51.88-9.13,1.31-13.74,1.28Z"/><path fill="#b1bec6" d="m708.22,570.89c-.26.01-.53.04-.78.09l-.24.05-.03-.14h1.04Z"/><path fill="#b1bec6" d="m706.8,571.62l-.23-1.23h1.64l.02,1c-.24.01-.48.03-.71.08l-.74.15Z"/><path fill="#b1bec6" d="m757.93,593.33v77.11c0,12.4-10.06,22.45-22.46,22.45h-54.4c-12.41,0-22.46-10.05-22.46-22.45v-77.11c0-10.4,7.05-19.14,16.65-21.69,1.85-.49,3.8-.75,5.81-.75h26.11l.03.14.24-.05c.25-.05.52-.08.78-.09h27.25c12.4,0,22.46,10.05,22.46,22.45Z" opacity=".25"/><path fill="#b1bec6" d="m735.47,694.9h-54.4c-13.49,0-24.46-10.97-24.46-24.45v-77.11c0-11.07,7.46-20.78,18.14-23.63,2.06-.54,4.18-.82,6.32-.82h54.4c13.49,0,24.46,10.97,24.46,24.45v77.11c0,13.48-10.97,24.45-24.46,24.45Zm-54.4-122.01c-1.8,0-3.58.23-5.3.69-8.93,2.38-15.16,10.5-15.16,19.76v77.11c0,11.27,9.18,20.45,20.46,20.45h54.4c11.28,0,20.46-9.17,20.46-20.45v-77.11c0-11.27-9.18-20.45-20.46-20.45h-27.25c-.07,0-.23.02-.38.05l-2.23.47-.09-.51h-24.44Z"/><path fill="#b1bec6" d="m698.55,605.21h-36.6c-1.1,0-2-.9-2-2s.9-2,2-2h36.6c1.1,0,2,.9,2,2s-.9,2-2,2Z"/><path fill="#b1bec6" d="m698.55,633.89h-36.6c-1.1,0-2-.9-2-2s.9-2,2-2h36.6c1.1,0,2,.9,2,2s-.9,2-2,2Z"/><path fill="#b1bec6" d="m698.55,662.57h-36.6c-1.1,0-2-.9-2-2s.9-2,2-2h36.6c1.1,0,2,.9,2,2s-.9,2-2,2Z"/><path fill="#b1bec6" d="m498.7,821.31c-1.1,0-2-.9-2-2v-140.5c0-1.1.9-2,2-2s2,.9,2,2v140.5c0,1.1-.9,2-2,2Z"/><path fill="#b1bec6" d="m419.15,723.63v8.35c0,4.25-3.46,7.7-7.71,7.7h-91.19c-4.26,0-7.71-3.45-7.71-7.7v-8.35c0-4.26,3.45-7.71,7.71-7.71h91.19c4.25,0,7.71,3.45,7.71,7.71Z" opacity=".25"/><path fill="#b1bec6" d="m289.09,775.98v77.12c0,7.12-3.31,13.47-8.49,17.58-2.37,1.88-5.15,3.31-8.16,4.12-1.85.49-3.8.75-5.82.75h-26.11l-.02-.14-.23.05c-.25.05-.52.07-.78.09h-27.25c-12.4,0-22.47-10.05-22.47-22.45v-77.12c0-12.4,10.07-22.45,22.47-22.45h54.39c12.42,0,22.47,10.05,22.47,22.45Z" opacity=".25"/><path fill="#b1bec6" d="m266.63,877.54h-54.39c-13.49,0-24.47-10.97-24.47-24.45v-77.12c0-13.48,10.98-24.45,24.47-24.45h54.39c13.49,0,24.47,10.97,24.47,24.45v77.12c0,7.5-3.37,14.48-9.25,19.14-2.66,2.11-5.65,3.62-8.89,4.48-2.07.55-4.2.82-6.33.82Zm-24.37-4h24.37c1.79,0,3.58-.23,5.31-.69,2.7-.72,5.2-1.98,7.43-3.75,4.91-3.9,7.73-9.73,7.73-16.01v-77.12c0-11.28-9.18-20.45-20.47-20.45h-54.39c-11.29,0-20.47,9.17-20.47,20.45v77.12c0,11.28,9.18,20.45,20.47,20.45h27.17c.16-.01.32-.02.47-.05l2.31-.51.08.56Z"/><path fill="#b1bec6" d="m656.23,915.74c-48.19,4.22-101.26,6.54-157,6.54-99.19,0-189.92-7.38-259.8-19.6,3.79-12.48,7.17-21.86,9.17-27.15h18.03c2.02,0,3.96-.26,5.82-.75,3.02-.8,5.79-2.23,8.16-4.12h143.68v8.36h120.08v-8.36h93.76s8.57,19.82,18.11,45.07Z" opacity=".5"/><path fill="#b1bec6" d="m499.23,924.29c-95.37,0-187.76-6.97-260.15-19.63l-2.23-.39.66-2.16c3.68-12.13,7.04-21.53,9.21-27.27l.49-1.29h19.41c1.79,0,3.58-.23,5.31-.69,2.7-.72,5.2-1.98,7.43-3.75l.55-.43h146.38v8.36h116.08v-8.36h97.07l.52,1.21c.09.2,8.7,20.15,18.14,45.16l.93,2.47-2.63.23c-49.65,4.35-102.53,6.55-157.17,6.55Zm-257.23-23.18c71.83,12.37,163.06,19.18,257.23,19.18,53.56,0,105.42-2.12,154.19-6.31-7.72-20.3-14.7-36.82-16.62-41.31h-90.44v8.36h-124.08v-8.36h-141c-2.51,1.88-5.31,3.24-8.33,4.05-2.07.55-4.2.82-6.33.82h-16.64c-2.01,5.38-4.85,13.43-7.98,23.56Z"/><path fill="#b1bec6" d="m232.23,753.53h-20c-12.4,0-22.47,10.05-22.47,22.45v44.12c-11.27-4.85-21.61-12.11-29.21-22.83-2.42-3.39-4.55-7.13-6.36-11.25-23.95-54.64,62.33-221.44,69.49-235.06-4.86,9.77-8.63,19.43-10.74,28.63-7.86,34.25,6.21,113.65,19.3,173.93Z" opacity=".5"/><path fill="#b1bec6" d="m191.76,823.14l-2.79-1.2c-12.79-5.5-22.9-13.41-30.06-23.51-2.55-3.58-4.75-7.48-6.56-11.6-10.23-23.35-2.48-68.58,23.05-134.44,19.85-51.22,43.83-97.28,46.5-102.36l3.56,1.82c-5.07,10.19-8.63,19.68-10.58,28.19-7.76,33.84,6.21,112.79,19.31,173.06l.53,2.42h-22.48c-11.29,0-20.47,9.17-20.47,20.45v47.16Zm18.59-240.91c-25.51,53.36-72.41,161.74-54.33,202.99,1.7,3.87,3.77,7.54,6.16,10.89,6.2,8.75,14.8,15.76,25.58,20.89v-41.02c0-13.48,10.98-24.45,24.47-24.45h17.52c-12.64-58.59-25.8-133.76-19.4-169.3Z"/><g><path fill="#b1bec6" d="m285.74,845.22h-36.6c-1.1,0-2-.9-2-2s.9-2,2-2h36.6c1.1,0,2,.9,2,2s-.9,2-2,2Z"/><path fill="#b1bec6" d="m285.74,816.54h-36.6c-1.1,0-2-.9-2-2s.9-2,2-2h36.6c1.1,0,2,.9,2,2s-.9,2-2,2Z"/><path fill="#b1bec6" d="m285.74,787.85h-36.6c-1.1,0-2-.9-2-2s.9-2,2-2h36.6c1.1,0,2,.9,2,2s-.9,2-2,2Z"/></g><g><path fill="#b1bec6" d="m641.11,166.09c0,.68.01,1.36.02,2.04.95,41.46,30.74,77.33,74.12,95.56l4.22,33.88c.67,5.4,7.26,7.66,11.1,3.78l26.22-26.45c7.67,1.04,15.55,1.59,23.61,1.59,76.07,0,137.9-48.33,139.27-108.36.01-.68.02-1.36.02-2.04,0-60.98-62.37-110.41-139.3-110.41-76.93,0-139.3,49.43-139.3,110.41Z" opacity=".25"/><path fill="#b1bec6" d="m725.97,305.3c-.93,0-1.86-.15-2.77-.46-3.11-1.06-5.29-3.75-5.7-7.02l-4.08-32.73c-44.92-19.27-73.35-56.32-74.28-96.91-.01-.7-.02-1.39-.02-2.08,0-61.98,63.39-112.41,141.3-112.41s141.3,50.43,141.3,112.41c0,.69-.01,1.38-.02,2.07-.68,29.68-15.73,57.46-42.4,78.24-26.56,20.69-61.68,32.09-98.88,32.09-7.67,0-15.36-.5-22.88-1.47l-25.52,25.74c-1.64,1.65-3.8,2.53-6.03,2.54Zm54.44-247.62c-75.71,0-137.3,48.63-137.3,108.41,0,.67.01,1.34.02,2,.9,39.3,28.83,75.23,72.9,93.76l1.07.45,4.37,35.03c.22,1.76,1.35,3.15,3.02,3.72,1.67.57,3.42.16,4.67-1.1l26.92-27.16.99.13c7.66,1.04,15.51,1.57,23.33,1.57,36.32,0,70.56-11.1,96.42-31.25,25.7-20.02,40.21-46.71,40.85-75.16.01-.66.02-1.33.02-1.99,0-59.78-61.59-108.41-137.3-108.41Z"/><path fill="#b1bec6" d="m744.47,157.3v18.78c0,13.91,3.11,24.67,9.38,32.23,5.52,6.65,13.04,10.41,22.56,11.17,1.26.11,2.55.16,3.88.16h.78c11.1-.18,19.71-3.98,25.86-11.4,6.26-7.61,9.41-18.32,9.41-32.16v-18.83c0-7.49-.9-14.03-2.73-19.68-.19-.64-.41-1.27-.64-1.89-1.45-3.91-3.38-7.34-5.77-10.32-.07-.11-.16-.21-.25-.32-2.28-2.76-4.9-5.03-7.88-6.78-5.17-3.04-11.38-4.57-18.65-4.57h-.04c-1.36,0-2.69.07-3.98.16-9.5.81-17.02,4.57-22.53,11.24-2.5,3.03-4.49,6.57-5.98,10.58-2.3,6.07-3.43,13.29-3.43,21.63Zm23.86-3.1c0-7.41.97-12.94,2.9-16.6,1.93-3.65,4.99-5.48,9.17-5.49h.04c4.11,0,7.09,1.69,8.96,5.09,1.86,3.4,2.87,8.55,3.01,15.44v26.34c0,7.69-.97,13.32-2.91,16.88-1.92,3.54-4.95,5.32-9.1,5.35h-.1c-4.06,0-7.06-1.73-9-5.21-1.94-3.46-2.92-8.9-2.97-16.32v-25.49Z" opacity=".5"/><path fill="#b1bec6" d="m780.29,221.63c-1.38,0-2.74-.06-4.04-.17-10-.8-18.06-4.8-23.93-11.88-6.53-7.88-9.84-19.15-9.84-33.5v-18.78c0-8.58,1.2-16.1,3.56-22.33,1.55-4.2,3.68-7.96,6.31-11.15,5.84-7.08,13.88-11.1,23.9-11.96,1.15-.08,2.63-.17,4.15-.17,7.63,0,14.25,1.63,19.7,4.84,3.14,1.85,5.97,4.28,8.4,7.23.12.14.22.27.31.39,2.51,3.13,4.54,6.77,6.04,10.82.24.65.47,1.33.67,2,1.86,5.77,2.81,12.6,2.81,20.27v18.83c0,14.23-3.32,25.47-9.87,33.43-6.51,7.86-15.72,11.94-27.37,12.13h-.81Zm.14-105.94c-1.44,0-2.83.08-3.88.15-8.88.76-16,4.3-21.12,10.52-2.34,2.84-4.24,6.21-5.65,10-2.2,5.8-3.31,12.84-3.31,20.93v18.78c0,13.4,3,23.81,8.92,30.95,5.16,6.22,12.29,9.74,21.18,10.45,1.21.1,2.45.15,3.72.15h.78c10.54-.17,18.51-3.66,24.32-10.67,5.94-7.22,8.95-17.61,8.95-30.88v-18.83c0-7.25-.88-13.66-2.63-19.06-.19-.63-.39-1.23-.61-1.81-1.36-3.67-3.2-6.95-5.45-9.76l-.1-.14s-.07-.09-.11-.13c-2.16-2.61-4.63-4.74-7.37-6.35-4.83-2.85-10.76-4.29-17.64-4.29Zm-.13,87.52c-4.75,0-8.47-2.15-10.74-6.23-2.12-3.79-3.17-9.44-3.22-17.28v-25.5c0-7.81,1.02-13.54,3.13-17.54,2.26-4.28,6.04-6.54,10.94-6.55,4.91,0,8.51,2.06,10.75,6.13,2.04,3.73,3.11,9.08,3.26,16.36v26.38c0,8.1-1.03,13.94-3.15,17.84-2.25,4.15-6,6.36-10.84,6.39h-.12Zm.14-69.1c-3.5,0-5.85,1.41-7.44,4.42-1.77,3.36-2.67,8.63-2.67,15.67v25.49c.04,7.03.96,12.2,2.72,15.34,1.59,2.85,3.89,4.18,7.25,4.18h.1c3.43-.02,5.76-1.39,7.34-4.3,1.77-3.26,2.67-8.61,2.67-15.93v-26.34c-.13-6.49-1.06-11.38-2.76-14.48-1.52-2.77-3.81-4.06-7.21-4.06Z"/></g><path fill="#b1bec6" d="m744.47,868.06c-.7,0-1.38-.37-1.74-1.02-.54-.96-.21-2.18.76-2.73.04-.02,3.87-2.2,9.99-6.43.91-.63,2.15-.4,2.78.51.63.91.4,2.15-.51,2.78-6.29,4.35-10.14,6.54-10.3,6.63-.31.18-.65.26-.98.26Zm19.86-13.62c-.6,0-1.19-.27-1.59-.78-.67-.88-.51-2.13.37-2.8,3.11-2.39,6.24-4.91,9.29-7.48.85-.71,2.11-.61,2.82.24.71.84.61,2.11-.24,2.82-3.1,2.61-6.27,5.17-9.43,7.6-.36.28-.79.41-1.22.41Zm18.37-15.49c-.54,0-1.08-.22-1.47-.64-.75-.81-.7-2.08.11-2.83,2.91-2.69,5.8-5.47,8.58-8.28.78-.79,2.04-.79,2.83-.01.79.78.79,2.04.01,2.83-2.83,2.85-5.76,5.68-8.71,8.41-.38.35-.87.53-1.36.53Zm16.9-17.07c-.48,0-.96-.17-1.34-.52-.82-.74-.88-2-.14-2.82,2.66-2.94,5.28-5.98,7.78-9.02.7-.85,1.96-.98,2.81-.28.85.7.98,1.96.28,2.81-2.54,3.09-5.2,6.18-7.9,9.17-.39.44-.94.66-1.48.66Zm15.24-18.56c-.41,0-.83-.13-1.19-.39-.89-.66-1.07-1.91-.41-2.8,2.37-3.2,4.68-6.47,6.85-9.73.61-.92,1.85-1.17,2.77-.55.92.61,1.17,1.85.55,2.77-2.21,3.32-4.56,6.65-6.97,9.9-.39.53-1,.81-1.61.81Zm13.31-19.97c-.35,0-.7-.09-1.02-.28-.95-.56-1.26-1.79-.7-2.74,2.02-3.4,3.96-6.9,5.78-10.39.51-.98,1.72-1.36,2.7-.85.98.51,1.36,1.72.85,2.7-1.85,3.55-3.84,7.11-5.89,10.58-.37.63-1.04.98-1.72.98Zm11.08-21.28c-.28,0-.55-.06-.82-.18-1.01-.45-1.46-1.64-1-2.65,1.63-3.61,3.17-7.3,4.57-10.96.4-1.03,1.55-1.55,2.58-1.15,1.03.39,1.55,1.55,1.15,2.58-1.43,3.73-3,7.49-4.66,11.18-.33.74-1.06,1.18-1.82,1.18Zm8.57-22.39c-.2,0-.4-.03-.6-.09-1.05-.33-1.64-1.46-1.3-2.51,1.19-3.76,2.28-7.6,3.24-11.42.27-1.07,1.36-1.72,2.43-1.45,1.07.27,1.72,1.36,1.45,2.43-.98,3.9-2.09,7.82-3.3,11.65-.27.85-1.06,1.4-1.91,1.4Zm5.84-23.25c-.12,0-.25-.01-.37-.03-1.09-.2-1.8-1.25-1.6-2.33.72-3.86,1.34-7.8,1.84-11.72.14-1.1,1.15-1.87,2.23-1.73,1.1.14,1.87,1.14,1.73,2.23-.5,4-1.13,8.03-1.87,11.96-.18.96-1.02,1.63-1.96,1.63Zm3-23.78s-.09,0-.13,0c-1.1-.07-1.94-1.02-1.87-2.13.01-.15.02-.31.03-.46-.41,0-.82.01-1.23.01h0c-1.1,0-2-.89-2-1.99,0-1.1.89-2,1.99-2.01.49,0,.97,0,1.46-.02.11-2.46.17-4.94.19-7.41,0-1.1.9-1.99,2-1.99h.01c1.1,0,1.99.91,1.99,2.01-.02,2.39-.08,4.79-.18,7.19,2.08-.15,4.15-.38,6.2-.69,1.08-.17,2.11.59,2.27,1.68.16,1.09-.59,2.11-1.68,2.27-2.32.35-4.66.6-7,.76-.02.3-.04.6-.06.89-.07,1.06-.95,1.87-1.99,1.87Zm-15.16-3.4c-.1,0-.19,0-.29-.02-4.1-.59-8.13-1.51-12-2.71-1.05-.33-1.64-1.45-1.31-2.5.33-1.05,1.45-1.64,2.5-1.31,3.67,1.14,7.5,2.01,11.38,2.57,1.09.16,1.85,1.17,1.69,2.27-.14,1-1,1.71-1.98,1.71Zm35.62-2.73c-.86,0-1.65-.56-1.91-1.42-.32-1.06.27-2.17,1.33-2.5,3.77-1.15,7.43-2.58,10.88-4.24,1-.48,2.19-.06,2.67.93.48.99.06,2.19-.93,2.67-3.63,1.76-7.49,3.26-11.46,4.47-.19.06-.39.09-.58.09Zm-58.42-4.43c-.31,0-.62-.07-.91-.22-2.74-1.4-5.4-2.99-7.91-4.72-.88-.61-1.73-1.24-2.55-1.87-.87-.68-1.03-1.94-.35-2.81.68-.87,1.94-1.03,2.81-.35.76.59,1.55,1.17,2.36,1.74,2.36,1.63,4.87,3.13,7.45,4.45.98.5,1.37,1.71.87,2.69-.35.69-1.05,1.09-1.78,1.09Zm79.9-6.04c-.62,0-1.24-.29-1.63-.83-.64-.9-.44-2.15.46-2.79,3.21-2.31,6.15-4.87,8.72-7.63.75-.81,2.02-.85,2.83-.1.81.75.85,2.02.1,2.83-2.75,2.95-5.88,5.69-9.31,8.15-.35.25-.76.38-1.16.38Zm-41.76-7.38c-1.06,0-1.94-.83-2-1.9-.2-4.11-.5-8.09-.91-11.84-.12-1.1.68-2.08,1.77-2.2,1.09-.12,2.08.68,2.2,1.77.41,3.83.72,7.89.92,12.08.05,1.1-.8,2.04-1.9,2.09-.03,0-.07,0-.1,0Zm-56.69-1.47c-.61,0-1.21-.28-1.61-.81-2.57-3.45-4.53-7.2-5.83-11.15-.35-1.05.22-2.18,1.27-2.52,1.05-.35,2.18.22,2.52,1.27,1.17,3.54,2.93,6.91,5.24,10.02.66.89.48,2.14-.41,2.8-.36.27-.78.4-1.19.4Zm114.61-8.63c-.34,0-.69-.09-1-.27-.96-.56-1.28-1.78-.72-2.73,1.94-3.34,3.46-6.88,4.52-10.54.31-1.06,1.41-1.67,2.48-1.36,1.06.31,1.67,1.42,1.36,2.48-1.15,3.97-2.8,7.82-4.91,11.44-.37.64-1.04,1-1.73,1Zm-60.57-13.73c-.94,0-1.78-.67-1.96-1.63-.78-4.1-1.72-7.94-2.8-11.42-.33-1.05.26-2.17,1.32-2.5,1.05-.33,2.17.26,2.5,1.32,1.13,3.63,2.11,7.62,2.91,11.86.21,1.09-.51,2.13-1.59,2.34-.13.02-.25.04-.37.04Zm-61.39-.04h-.02c-1.1,0-1.99-.91-1.98-2.02.03-4.12.69-8.29,1.96-12.38.33-1.06,1.45-1.65,2.5-1.32,1.06.33,1.65,1.45,1.32,2.5-1.15,3.72-1.75,7.5-1.78,11.23,0,1.1-.9,1.98-2,1.98Zm128.61-9.03s-.06,0-.09,0c-1.1-.05-1.96-.98-1.91-2.08.03-.73.05-1.47.05-2.21,0-3.03-.27-6.17-.81-9.31-.19-1.09.55-2.12,1.64-2.31,1.1-.19,2.12.55,2.31,1.64.57,3.37.86,6.73.86,9.98,0,.8-.02,1.6-.05,2.39-.05,1.07-.93,1.91-2,1.91Zm-121.69-13.62c-.37,0-.74-.1-1.08-.32-.93-.6-1.2-1.83-.61-2.76,2.33-3.64,5.08-6.84,8.18-9.5.84-.72,2.1-.63,2.82.21.72.84.63,2.1-.21,2.82-2.8,2.41-5.3,5.32-7.42,8.63-.38.6-1.03.92-1.69.92Zm47.13-.05c-.72,0-1.42-.39-1.77-1.07-1.94-3.71-4.16-6.8-6.6-9.19-.79-.77-.8-2.04-.03-2.83.77-.79,2.04-.8,2.83-.03,2.74,2.68,5.21,6.11,7.35,10.19.51.98.13,2.19-.85,2.7-.3.15-.61.23-.92.23Zm70.71-9.86c-.82,0-1.59-.51-1.88-1.33-1.25-3.52-2.83-7.13-4.7-10.72-.51-.98-.13-2.19.85-2.7.98-.51,2.19-.13,2.7.85,1.95,3.76,3.61,7.54,4.92,11.23.37,1.04-.17,2.18-1.21,2.55-.22.08-.45.12-.67.12Zm-99.74-5.17c-.84,0-1.62-.53-1.9-1.37-.35-1.05.22-2.18,1.27-2.53,4.37-1.45,8.8-1.67,12.92-.65,1.07.27,1.73,1.35,1.46,2.42-.27,1.07-1.36,1.73-2.42,1.46-3.39-.84-7.05-.65-10.7.56-.21.07-.42.1-.63.1Zm88.81-16.12c-.65,0-1.28-.31-1.67-.89-2.1-3.15-4.45-6.35-6.99-9.53-.69-.86-.55-2.12.31-2.81.86-.69,2.12-.55,2.81.31,2.61,3.27,5.04,6.57,7.2,9.81.61.92.36,2.16-.55,2.77-.34.23-.73.34-1.11.34Zm-14.93-18.75c-.54,0-1.08-.22-1.47-.64-2.6-2.81-5.4-5.67-8.32-8.48-.79-.77-.82-2.03-.05-2.83.77-.79,2.03-.82,2.83-.05,2.98,2.87,5.83,5.78,8.48,8.65.75.81.7,2.08-.11,2.83-.38.35-.87.53-1.36.53Zm-17.01-16.92c-.51,0-1.03-.2-1.42-.59-2.89-2.92-5.68-5.87-8.31-8.78-.74-.82-.68-2.08.14-2.83.82-.74,2.08-.67,2.83.14,2.59,2.86,5.34,5.77,8.19,8.64.78.79.77,2.05-.01,2.83-.39.39-.9.58-1.41.58Zm-16.05-17.82c-.58,0-1.16-.25-1.56-.74-2.6-3.21-5.07-6.46-7.34-9.65-.64-.9-.43-2.15.47-2.79.9-.64,2.15-.43,2.79.47,2.22,3.12,4.63,6.3,7.18,9.45.69.86.56,2.12-.3,2.81-.37.3-.82.45-1.26.45Zm-13.85-19.57c-.68,0-1.34-.34-1.71-.96-2.15-3.55-4.12-7.14-5.86-10.66-.49-.99-.08-2.19.91-2.68.99-.49,2.19-.08,2.68.91,1.69,3.42,3.6,6.91,5.69,10.36.57.95.27,2.17-.67,2.75-.32.2-.68.29-1.03.29Zm-10.54-21.51c-.81,0-1.58-.5-1.88-1.3-1.45-3.9-2.66-7.83-3.59-11.69-.26-1.07.4-2.15,1.47-2.41,1.07-.26,2.15.4,2.41,1.47.9,3.7,2.06,7.48,3.46,11.23.38,1.04-.14,2.19-1.18,2.57-.23.09-.47.13-.7.13Zm-5.57-23.27c-1.01,0-1.88-.77-1.99-1.8-.29-2.86-.44-5.74-.45-8.57,0-1.23.03-2.48.08-3.71.05-1.1,1.01-1.95,2.09-1.91,1.1.05,1.96.99,1.91,2.09-.05,1.17-.08,2.35-.08,3.52,0,2.69.14,5.44.42,8.16.11,1.1-.69,2.08-1.78,2.19-.07,0-.14.01-.21.01Zm1.13-23.87c-.13,0-.27-.01-.4-.04-1.08-.22-1.78-1.28-1.56-2.36.82-4,1.97-7.98,3.41-11.82.39-1.03,1.54-1.56,2.57-1.17,1.03.39,1.56,1.54,1.17,2.58-1.37,3.65-2.46,7.42-3.23,11.22-.19.95-1.03,1.6-1.96,1.6Zm8.37-22.39c-.33,0-.67-.08-.98-.26-.96-.54-1.31-1.76-.77-2.72,2.01-3.58,4.3-7.03,6.8-10.25.68-.87,1.93-1.03,2.81-.35.87.68,1.03,1.94.35,2.81-2.38,3.06-4.56,6.34-6.47,9.75-.37.65-1.05,1.02-1.75,1.02Z"/><g><path fill="#b1bec6" d="m900.84,346.8c-3.3-1.22-7.18-1.8-11.36-1.67-3.12-2.45-6.74-4.76-10.76-6.77-5.73-2.88-11.49-4.76-16.67-5.64-2.76-10.19-1.71-18.78,3.44-21.66,7.4-4.16,20.49,5.07,29.23,20.63,2.88,5.14,4.94,10.33,6.12,15.11Z" opacity=".75"/><path fill="#b1bec6" d="m905.12,351.59l-5.33-1.98c-2.92-1.09-6.46-1.6-10.22-1.49l-1.09.03-.86-.67c-3.06-2.41-6.51-4.57-10.25-6.44-5.27-2.65-10.74-4.5-15.83-5.37l-1.89-.32-.5-1.85c-3.29-12.14-1.47-21.51,4.86-25.06,4.64-2.61,10.79-1.51,17.31,3.09,5.88,4.15,11.56,10.79,16,18.69,2.92,5.21,5.14,10.69,6.42,15.86l1.37,5.51Zm-14.53-9.48c2.01,0,3.96.15,5.83.46-1.13-3.13-2.59-6.32-4.32-9.41-4.01-7.14-9.07-13.08-14.23-16.72-4.46-3.15-8.43-4.15-10.91-2.76-3.37,1.89-4.3,8.38-2.46,16.46,5.09,1.07,10.44,2.97,15.57,5.55,3.75,1.88,7.26,4.04,10.42,6.43.04,0,.07,0,.11,0Z"/><path fill="#b1bec6" d="m889.05,386.93c-16.3,7.24-33.27,4.66-37.89-5.75-2.76-6.2-.5-13.79,5.23-20.44,2.57,1.84,5.45,3.57,8.54,5.13,15.96,7.99,31.98,8.32,35.79.73.78-1.58.99-3.35.68-5.26-.82-5.03-5.2-10.93-11.91-16.2,4.18-.13,8.06.45,11.36,1.67h.01c4.35,1.62,7.68,4.37,9.36,8.17,4.62,10.41-4.84,24.72-21.17,31.96Z"/><path fill="#b1bec6" d="m856.39,360.74c2.56,1.83,5.45,3.57,8.54,5.13,15.96,7.99,31.98,8.32,35.79.73.78-1.58,1-3.35.68-5.27-.82-5.02-5.2-10.92-11.92-16.2-3.12-2.46-6.74-4.76-10.76-6.77-5.74-2.88-11.49-4.76-16.66-5.64-9.23-1.57-16.67.03-19.1,4.9-3.07,6.12,2.71,15.51,13.44,23.11Z" opacity=".5"/><path fill="#b1bec6" d="m887.87,375.02c-7.07,0-15.65-2.15-24.29-6.48-3.21-1.62-6.21-3.42-8.93-5.37-12.5-8.85-18.14-19.41-14.38-26.9,2.97-5.94,11.3-8.38,22.29-6.51,5.64.95,11.69,3,17.5,5.91,4.12,2.06,7.91,4.45,11.27,7.09,7.45,5.85,12.08,12.27,13.02,18.07.42,2.57.1,4.95-.95,7.08-2.37,4.72-8.11,7.09-15.53,7.09Zm-32.24-39.87c-5.06,0-8.76,1.35-10,3.82-2.25,4.48,3,12.6,12.49,19.32h0c2.47,1.78,5.21,3.42,8.15,4.9,15.44,7.73,29.13,7.29,31.76,2.06.49-.98.62-2.11.4-3.43-.68-4.2-4.72-9.55-10.81-14.33-3.05-2.4-6.49-4.56-10.25-6.45-5.29-2.65-10.76-4.5-15.82-5.36-2.11-.36-4.11-.53-5.92-.53Z"/></g><g><rect width="120.08" height="0" x="424.28" y="879.03" fill="#b1bec6" opacity=".25"/><path fill="#b1bec6" d="m478.71,575.41c-1.23-1.01-2.52-2.1-3.87-3.28,1.35,1.18,2.64,2.27,3.87,3.28Z" opacity=".25"/><path fill="#b1bec6" d="m498.39,569.84c-.29.83-.58,1.62-.85,2.39.28-.76.56-1.56.85-2.39Z" opacity=".25"/><path fill="#b1bec6" d="m408.14,504.64c-.97-1.03-1.93-2.07-2.89-3.1.96,1.03,1.93,2.07,2.89,3.1Z" opacity=".25"/><path fill="#b1bec6" d="m496.91,573.92c-.38,1-.74,1.93-1.1,2.79.35-.86.72-1.79,1.1-2.79Z" opacity=".25"/><path fill="#b1bec6" d="m528.38,469.85c1.16-3.65,2.24-6.92,3.23-9.69-7.04,19.7-18.92,64.33-28.16,94.15,7.93-25.62,17.82-62.17,24.92-84.46Z" opacity=".25"/><path fill="#b1bec6" d="m413.45,510.31c-1.36-1.45-2.73-2.91-4.09-4.37,1.36,1.46,2.73,2.92,4.09,4.37Z" opacity=".25"/><path fill="#b1bec6" d="m353.94,446.48c.7.74,1.41,1.49,2.13,2.25,10.45,11.07,22.97,24.61,36.13,38.78-14.07-15.16-27.4-29.58-38.26-41.04Z" opacity=".25"/><path fill="#b1bec6" d="m494.73,676.66c-26.07-14.74-161.06-96.64-152.71-112.15,8.02-14.9,21.67-42.57,24.51-48.37.19-.38-.19-.79-.58-.64,0,0,0,0,0,0,.4-.15.77.27.58.64-2.84,5.8-16.49,33.46-24.51,48.36-8.35,15.51,126.65,97.42,152.72,112.15Z" opacity=".25"/><path fill="#b1bec6" d="m123.85,218.64h103.8c25.03,0,47.78,9.81,64.6,25.8.57-4.76,1.32-10.61,2.27-17.21,6.02-42.08,19.89-114.2,45.01-122.95,35.7-12.44,43.83,7.03,60.06.54,16.23-6.48,51.48-22.96,82.31,8.95,18.33,18.97,30.49,52.94,37.34,77.42,4.68,16.68,6.88,28.92,6.89,28.96.22.02,131.55,11.86,142.9,42.14,7.55,20.11-38.08,37.6-121.98,52.62,6.25,28.43,16.3,94.36-14,131.03l2.63,4.99c.35-.48.65-.72.92-.72,5.77,0,30.18,10.34,35.95,22.2.63,1.3,1.36,2.91,2.14,4.74,1.76,4.16,3.78,9.53,5.64,15.25-1.85-5.72-3.88-11.09-5.64-15.25,5.22,1.47,10.87,3.35,16.66,5.79,1.41,2.93,2.9,5.79,4.48,8.55,10.86,18.91,25.84,33.61,42.69,42.19-16.84-8.59-31.83-23.28-42.68-42.19-1.59-2.77-3.08-5.62-4.49-8.55-4.89-10.17-8.64-21.35-10.94-33.28-11.5-59.38,16.84-114.82,63.29-123.82,10.96-2.12,21.93-1.47,32.47,1.55,13.08,3.74,25.48,11.12,36.29,21.34-4.69-11.16-7.28-23.42-7.28-36.29,0-15.73,3.88-30.55,10.72-43.57l-.64-5.16c-43.38-18.24-73.17-54.11-74.12-95.56-.01-.68-.02-1.36-.02-2.04,0-60.98,62.37-110.41,139.3-110.41s139.3,49.43,139.3,110.41c0,.68-.01,1.36-.02,2.04-.37,16.32-5.22,31.77-13.6,45.62,13.86-4.67,26.27-12.48,36.38-22.59,16.97-16.97,27.47-40.41,27.47-66.32,0-51.8-42-93.79-93.79-93.79H123.85c-25.89,0-49.35,10.5-66.32,27.47-16.98,16.97-27.47,40.41-27.47,66.32,0,51.8,41.99,93.79,93.79,93.79Z" opacity=".25"/><path fill="#b1bec6" d="m399.82,495.72c-1.01-1.08-2.01-2.17-3.02-3.24,1,1.08,2.01,2.16,3.02,3.24Z" opacity=".25"/><path fill="#b1bec6" d="m403.85,500.04c-.91-.98-1.82-1.95-2.73-2.93.91.98,1.82,1.95,2.73,2.93Z" opacity=".25"/><path fill="#b1bec6" d="m395.99,491.6c-1.2-1.29-2.4-2.58-3.59-3.86,1.19,1.28,2.39,2.57,3.59,3.86Z" opacity=".25"/><path fill="#b1bec6" d="m577.2,533.12c2.53-1.3,4.71-2.63,6.26-3.93,0,0,0,0,0,0-1.54,1.31-3.73,2.64-6.26,3.93Z" opacity=".25"/><path fill="#b1bec6" d="m696.03,537.9c1.49-.55,2.96-1.13,4.4-1.78,3.37-1.53,6.6-3.33,9.69-5.36-3.09,2.03-6.31,3.83-9.69,5.36-1.44.65-2.91,1.24-4.4,1.79Z" opacity=".25"/><path fill="#b1bec6" d="m676.6,542.02c-1.59.1-3.17.14-4.75.13,1.58.01,3.17-.03,4.75-.13Z" opacity=".25"/><path fill="#b1bec6" d="m123.85,593.79h1.2c25.54,0,48.69,10.21,65.6,26.77,15.55-35.93,30.25-64.3,33.02-69.59-.41.83-.81,1.66-1.21,2.49.44-.92.88-1.84,1.34-2.76.12-.25.21-.43.28-.53.03-.07.05-.1.05-.1,14.9-29.57,39.62-59.96,58.32-80.8,5.05,14.19,25.85,32.02,34.86,43.87,6.65,8.74,19.23,9.16,30.08,7.42-10.85,1.73-23.43,1.31-30.08-7.42-9-11.85-29.8-29.67-34.86-43.86-2.35-6.6-1.3-12.42,5.94-16.5,0,0,26.66-37.25,40.14-30.82,1.62.77,5.08,3.84,9.95,8.63,2.91,2.87,6.33,6.36,10.16,10.34-3.82-3.98-7.24-7.47-10.16-10.34,1.37-3.38,2.75-6.77,4.06-9.93h0c-14.12-11.58-22.36-20.52-22.36-20.52,0,0-28.32,16.47-43.47-7.76-14.27,8.78-31.08,13.85-49.06,13.85h-103.8c-25.89,0-49.35,10.5-66.32,27.47-16.98,16.97-27.47,40.41-27.47,66.32,0,51.8,41.99,93.79,93.79,93.79Z" opacity=".25"/><path fill="#b1bec6" d="m499.29,567.26c-.22.63-.43,1.24-.64,1.85.21-.6.42-1.21.64-1.85Z" opacity=".25"/><path fill="#b1bec6" d="m876.15,406.21h-77.18c-23.57,0-45.11-8.7-61.58-23.05,5.03,10.35,8.89,21.75,11.25,33.93,8.79,45.38-5.69,88.47-33.74,110.27-1.05.82-2.12,1.61-3.22,2.37,6.1,11.26,13.52,25.36,20.75,41.16h3.04c12.4,0,22.46,10.05,22.46,22.45v.45h118.22c25.89,0,49.35-10.5,66.32-27.47s27.47-40.41,27.47-66.32c0-51.8-42-93.79-93.79-93.79Z" opacity=".25"/><path fill="#b1bec6" d="m665.26,541.76c-1.79-.19-3.57-.45-5.35-.77,1.77.32,3.56.59,5.35.77Z" opacity=".25"/><path fill="#b1bec6" d="m876.15,781.36h-102.25c77.02,14.88,125.07,35.95,125.07,59.29,0,33.7-100.01,62.64-242.75,75.09,0,0,0,0,0,0-48.19,4.22-101.25,6.54-156.99,6.54-99.19,0-189.92-7.38-259.8-19.6-85.67-14.96-139.96-37.19-139.96-62.04,0-15.94,22.38-30.81,61.08-43.38-2.41-3.39-4.55-7.13-6.36-11.25-1.13-2.58-2.01-5.41-2.67-8.45-8.39,2.46-17.27,3.79-26.46,3.79h-1.2c-25.89,0-49.35,10.5-66.32,27.47-16.98,16.97-27.47,40.42-27.47,66.32,0,51.8,41.99,93.79,93.79,93.79h752.3c25.89,0,49.35-10.5,66.32-27.47,16.97-16.97,27.47-40.41,27.47-66.32,0-51.79-42-93.79-93.79-93.79Z" opacity=".25"/><path fill="#b1bec6" d="m218.77,561.73c-2.51,6.08-4.5,12.06-5.83,17.86,1.33-5.8,3.32-11.78,5.83-17.86Z" opacity=".25"/><path fill="#b1bec6" d="m501.18,561.53c-.22.68-.44,1.35-.65,2.01.22-.66.43-1.33.65-2.01Z" opacity=".25"/><path fill="#b1bec6" d="m641.11,534.95s0,0,0,0c3.39,13.8,5.22,34.58,6,58.84h0c-.78-24.26-2.62-45.03-6-58.84,0,0,0,0,0,0Z" opacity=".25"/><path fill="#b1bec6" d="m500.22,564.48c-.21.64-.42,1.27-.63,1.89.21-.62.42-1.24.63-1.89Z" opacity=".25"/><path fill="#b1bec6" d="m502.2,558.34c-.24.76-.48,1.51-.71,2.24.24-.74.47-1.48.71-2.24Z" opacity=".25"/><path fill="#b1bec6" d="m641.38,781.36h0c-1.97,29.19-3.65,48.65-3.66,48.68h0s1.68-19.47,3.65-48.68Z" opacity=".25"/><path fill="#b1bec6" d="m503.29,554.87c-.28.9-.55,1.78-.83,2.64.27-.87.55-1.75.83-2.64Z" opacity=".25"/></g></svg>