<?xml version="1.0" encoding="iso-8859-1"?>
<!-- Uploaded to: SVG Repo, www.svgrepo.com, Generator: SVG Repo Mixer Tools -->
<svg fill="#ffffff" height="800px" width="800px" version="1.1" id="Layer_1" xmlns="http://www.w3.org/2000/svg" xmlns:xlink="http://www.w3.org/1999/xlink" 
	 viewBox="0 0 512.02 512.02" xml:space="preserve">
<g>
	<g>
		<path d="M443.688,39.195C398.046,14.719,326.478,0.01,255.768,0.01c-70.269,0-141.241,14.534-186.848,38.785
			C12.95,68.56-13.195,134.815,6.532,195.452C49.919,328.761,173.916,512.01,255.768,512.01
			c81.817,0.173,206.589-184.237,249.794-317.294C525.086,134.56,499.161,68.955,443.688,39.195z M88.953,76.467
			c38.81-20.638,103.038-33.79,166.815-33.79c64.177,0,128.958,13.314,167.753,34.118c37.186,19.95,54.644,64.126,41.46,104.747
			c-2.726,8.395-5.871,17.09-9.377,25.996l-408.69-80.366C53.679,105.934,68.296,87.452,88.953,76.467z M47.104,182.235
			c-0.138-0.425-0.259-0.856-0.39-1.283c-0.188-0.609-0.376-1.218-0.55-1.828c-0.831-2.952-1.499-5.956-2.002-9.009l393.263,77.332
			c-6.611,13.673-13.913,27.832-21.695,42.034L61.968,220.576C55.728,206.219,50.673,193.172,47.104,182.235z M255.813,469.343
			c-42.448,0-120.87-101.457-171.932-201.031l309.721,60.326C346.08,405.073,289.45,469.414,255.813,469.343z"/>
	</g>
</g>
</svg>